<svg width="707" height="604" viewBox="0 0 707 604" fill="none" xmlns="http://www.w3.org/2000/svg">
<path opacity="0.15" d="M110.978 114.007C46.6726 155.539 8.58107 231.757 14.627 311.344C17.7248 352.054 31.718 391.564 69.6814 412.751C171.223 469.614 613.688 469.13 673.998 369.871C736.124 267.623 714.781 125.275 573.588 65.4629C451.088 13.5699 277.017 6.72519 110.978 114.007Z" fill="#91AED4"/>
<path d="M262.026 302.956H231.282V342.751H188.671V302.956H87V273.448L175.996 153.249H221.843L139.319 267.221H190.02V231.757H231.282V267.221H262.026V302.956Z" fill="white"/>
<path d="M355.999 346C340.357 346 326.423 342.12 314.197 334.359C301.972 326.599 292.353 315.409 285.341 300.79C278.509 285.991 275.093 268.394 275.093 248C275.093 227.606 278.509 210.099 285.341 195.481C292.353 180.681 301.972 169.401 314.197 161.641C326.423 153.88 340.357 150 355.999 150C371.64 150 385.574 153.88 397.8 161.641C410.026 169.401 419.555 180.681 426.387 195.481C433.398 210.099 436.904 227.606 436.904 248C436.904 268.394 433.398 285.991 426.387 300.79C419.555 315.409 410.026 326.599 397.8 334.359C385.574 342.12 371.64 346 355.999 346ZM355.999 308.912C367.505 308.912 376.495 303.948 382.967 294.022C389.619 284.096 392.946 268.755 392.946 248C392.946 227.245 389.619 211.904 382.967 201.978C376.495 192.052 367.505 187.088 355.999 187.088C344.672 187.088 335.682 192.052 329.03 201.978C322.558 211.904 319.321 227.245 319.321 248C319.321 268.755 322.558 284.096 329.03 294.022C335.682 303.948 344.672 308.912 355.999 308.912Z" fill="white"/>
<path d="M631 302.956H600.256V342.751H557.646V302.956H455.974V273.448L544.97 153.249H590.817L508.293 267.221H558.994V231.757H600.256V267.221H631V302.956Z" fill="white"/>
<path opacity="0.45" d="M346.592 604C529.806 604 678.33 589.759 678.33 572.193C678.33 554.626 529.806 540.386 346.592 540.386C163.379 540.386 14.8545 554.626 14.8545 572.193C14.8545 589.759 163.379 604 346.592 604Z" fill="#91AED4"/>
<path d="M90.5947 156.055C90.5947 154.332 90.2565 152.626 89.5996 151.035C88.9426 149.444 87.9798 147.999 86.7661 146.781C85.5524 145.564 84.1117 144.6 82.5264 143.942C80.941 143.285 79.2423 142.948 77.5272 142.951C76.85 142.954 76.1743 143.015 75.5074 143.133C73.9988 140.32 71.7604 137.969 69.0296 136.33C66.2989 134.691 63.1774 133.824 59.9961 133.822H59.3498C59.7695 132.158 59.9866 130.448 59.9961 128.731C60.0831 125.92 59.607 123.12 58.5962 120.498C57.5853 117.876 56.0602 115.484 54.1115 113.465C52.1627 111.446 49.8299 109.841 47.2516 108.744C44.6733 107.648 41.902 107.083 39.1021 107.083C36.3023 107.083 33.531 107.648 30.9527 108.744C28.3744 109.841 26.0416 111.446 24.0928 113.465C22.144 115.484 20.619 117.876 19.6081 120.498C18.5972 123.12 18.1212 125.92 18.2082 128.731C18.2177 130.448 18.4347 132.158 18.8545 133.822H18.2082C15.8465 133.742 13.4929 134.14 11.2875 134.992C9.08211 135.844 7.07001 137.133 5.37105 138.783C3.67209 140.432 2.32101 142.409 1.39827 144.593C0.475527 146.778 0 149.127 0 151.501C0 153.874 0.475527 156.223 1.39827 158.408C2.32101 160.593 3.67209 162.569 5.37105 164.218C7.07001 165.868 9.08211 167.157 11.2875 168.009C13.4929 168.862 15.8465 169.259 18.2082 169.179H79.2439V169.057C82.3852 168.644 85.2693 167.096 87.3579 164.703C89.4466 162.311 90.5971 159.237 90.5947 156.055Z" fill="#91AED4"/>
<path d="M692.109 65.7557C692.115 61.0714 690.27 56.5763 686.979 53.2564C683.689 49.9365 679.222 48.063 674.558 48.0469C673.611 48.0557 672.665 48.137 671.73 48.2903C669.701 44.4955 666.685 41.324 663.005 39.1131C659.324 36.9021 655.115 35.7343 650.826 35.7339C650.523 35.7339 650.241 35.7339 649.958 35.7339C651.078 31.5269 651.219 27.1176 650.371 22.8469C649.524 18.5762 647.71 14.5586 645.069 11.1045C642.429 7.65039 639.033 4.85244 635.144 2.92695C631.255 1.00146 626.977 0 622.641 0C618.305 0 614.028 1.00146 610.139 2.92695C606.25 4.85244 602.854 7.65039 600.213 11.1045C597.573 14.5586 595.758 18.5762 594.911 22.8469C594.063 27.1176 594.205 31.5269 595.324 35.7339C595.042 35.7339 594.759 35.7339 594.456 35.7339C588.279 35.9148 582.416 38.5064 578.11 42.9585C573.805 47.4106 571.397 53.3726 571.397 59.5789C571.397 65.7853 573.805 71.7473 578.11 76.1994C582.416 80.6515 588.279 83.243 594.456 83.424H676.86V83.2617C681.081 82.6921 684.953 80.6038 687.757 77.3844C690.562 74.165 692.108 70.0332 692.109 65.7557Z" fill="#91AED4"/>
<path d="M290.081 283.841L335.464 227.043L345.259 235.664L306.582 300.617L290.081 283.841Z" fill="#2F80ED"/>
<path d="M232.963 209.131L241.325 234.346L221.451 247.044L214.301 203.309L232.963 209.131Z" fill="#E08DAC"/>
<path d="M207.474 178.927C208.511 176.524 210.13 174.42 212.183 172.805C214.236 171.191 216.659 170.119 219.231 169.685C221.802 169.252 224.441 169.471 226.906 170.324C229.372 171.176 231.586 172.634 233.347 174.566C241.809 183.633 252.009 198.056 240.476 205.906C222.804 217.935 206.606 195.479 206.606 195.479C205.26 189.997 205.562 184.237 207.474 178.927Z" fill="#E08DAC"/>
<path d="M220.381 194.404C220.381 194.404 215.856 190.591 213.816 195.987C211.776 201.382 219.755 204.101 222.138 201.281C224.522 198.461 220.381 194.404 220.381 194.404Z" fill="#E08DAC"/>
<path d="M198.244 259.418C201.24 252.733 205.636 246.775 211.133 241.951C216.629 237.127 223.097 233.55 230.095 231.465C257.119 223.351 306.844 232.236 322.012 257.613C342.775 292.361 312.378 402.732 312.378 402.732L221.613 409.811C221.613 409.811 171.685 319.34 198.244 259.418Z" fill="#2F80ED"/>
<path opacity="0.08" d="M237.972 229.173C237.972 229.173 195.558 366.523 318.114 375.631L312.399 402.813L221.633 409.892C221.633 409.892 189.64 359.443 190.994 288.588C190.994 288.588 191.761 253.555 216.321 238.078C222.823 233.592 230.205 230.556 237.972 229.173Z" fill="#0A3268"/>
<path d="M274.993 230.755C270.457 238.057 268.053 246.491 268.053 255.098C268.053 263.704 270.457 272.138 274.993 279.44C284.89 296.215 313.691 328.895 333.383 350.437C335.608 352.877 338.378 354.75 341.465 355.905C344.552 357.059 347.867 357.46 351.139 357.076C354.41 356.692 357.544 355.533 360.283 353.694C363.021 351.856 365.286 349.391 366.89 346.502L409.304 271.61L394.944 262.36L356.166 319.442C356.166 319.442 329.546 231.851 274.993 230.755Z" fill="#2F80ED"/>
<path opacity="0.2" d="M274.993 230.755C270.457 238.057 268.053 246.491 268.053 255.098C268.053 263.704 270.457 272.138 274.993 279.44C284.89 296.215 313.691 328.895 333.383 350.437C335.608 352.877 338.378 354.75 341.465 355.905C344.552 357.059 347.867 357.46 351.139 357.076C354.41 356.692 357.544 355.533 360.283 353.694C363.021 351.856 365.286 349.391 366.89 346.502L409.304 271.61L394.944 262.36L356.166 319.442C356.166 319.442 329.546 231.851 274.993 230.755Z" fill="white"/>
<path d="M404.194 268.384C404.194 268.384 428.209 259.519 418.332 245.888C408.456 232.256 394.762 262.359 394.762 262.359L404.194 268.384Z" fill="#E08DAC"/>
<path d="M215.614 211.322L202.162 197.346C200.777 195.891 199.704 194.167 199.009 192.28C198.315 190.392 198.013 188.381 198.123 186.372C198.446 179.252 199.961 167.912 205.818 159.392C215.028 146.045 227.267 140.994 230.317 152.536C233.367 164.078 233.973 150.366 241.385 156.593C248.798 162.821 247.283 166.33 241.385 169.576C235.488 172.821 223.309 177.527 222.218 187.284C221.128 197.042 230.277 204.831 215.614 211.322Z" fill="#0A3268"/>
<path d="M348.551 226.434L369.839 177.324L383.714 195.155L410.678 182.253L422.453 202.234L451.496 198.055L434.248 253.86L406.032 261.162L393.066 239.822L366.042 247.287L348.551 226.434Z" fill="#FFBA08"/>
<path opacity="0.2" d="M371.192 189.475L355.782 223.879L368.668 240.046L396.459 230.755L407.81 255.361L429.299 249.235L443.195 205.155L418.251 209.456L407.81 189.475L382.563 202.376L371.192 189.475Z" fill="white"/>
<path opacity="0.08" d="M383.714 195.155L366.042 247.288L393.066 239.823L410.678 182.254L383.714 195.155Z" fill="#0A3268"/>
<path opacity="0.08" d="M422.452 202.234L406.032 261.162L434.247 253.86L451.496 198.056L422.452 202.234Z" fill="#0A3268"/>
<path d="M337.14 228.544C337.14 228.544 339.826 216.252 345.219 213.087C350.611 209.923 361.679 212.418 356.953 219.173C352.227 225.928 345.219 235.664 345.219 235.664L337.14 228.544Z" fill="#E08DAC"/>
<path d="M118.203 481.762V451.639H164.657V481.762" stroke="#E0A50E" stroke-width="3" stroke-linecap="round" stroke-linejoin="round"/>
<path d="M212.019 469.47H69.3866V575.5H212.019V469.47Z" fill="#FFBA08"/>
<path opacity="0.3" d="M187.298 469.47L151.69 575.5H201.173L217.331 520.263L212.019 469.47H187.298Z" fill="#E0A50E"/>
<path opacity="0.49" d="M111.295 537.181C119.382 537.181 125.938 530.597 125.938 522.475C125.938 514.352 119.382 507.768 111.295 507.768C103.208 507.768 96.6525 514.352 96.6525 522.475C96.6525 530.597 103.208 537.181 111.295 537.181Z" fill="#FFF3DD"/>
<path opacity="0.49" d="M105.458 485.353H89.9269V500.952H105.458V485.353Z" fill="#FFF3DD"/>
<path opacity="0.49" d="M115.477 498.579L128.968 489.714V506.449L115.477 498.579Z" fill="#FFF3DD"/>
<path d="M312.055 402.509L299.977 561.036H280.871L263.845 437.866L221.633 409.669L312.055 402.509Z" fill="#0A3268"/>
<path d="M221.633 409.669L195.275 561.036H215.755L259.967 435.269L221.633 409.669Z" fill="#0A3268"/>
<path d="M198.991 561.036L186.308 570.428C185.836 570.778 185.486 571.269 185.308 571.831C185.13 572.392 185.133 572.996 185.316 573.555C185.5 574.115 185.855 574.602 186.33 574.948C186.805 575.293 187.377 575.479 187.964 575.479H209.231C209.598 575.482 209.962 575.411 210.301 575.272C210.641 575.132 210.949 574.926 211.208 574.665C211.468 574.405 211.673 574.095 211.812 573.754C211.951 573.413 212.021 573.048 212.019 572.68V561.036H198.991Z" fill="#2F80ED"/>
<path d="M299.432 561.036L311.389 570.428C311.854 570.789 312.194 571.287 312.362 571.853C312.531 572.418 312.518 573.022 312.326 573.58C312.134 574.138 311.773 574.621 311.293 574.962C310.813 575.303 310.239 575.483 309.652 575.479H294.504C292.361 575.479 290.306 574.624 288.791 573.103C287.276 571.581 286.425 569.517 286.425 567.365V561.036H299.432Z" fill="#2F80ED"/>
<path d="M560.581 256.943H548.806V567.852H560.581V256.943Z" fill="#0A3268"/>
<path d="M501.1 328.833H571.023V303.599H501.1V328.833Z" fill="#FFBA08"/>
<path d="M501.1 296.479V336.055L469.29 316.216L501.1 296.479Z" fill="#FFBA08"/>
<path d="M608.832 244.285H538.909V269.52H608.832V244.285Z" fill="#FFBA08"/>
<path d="M608.832 237.145V276.741L640.642 256.902L608.832 237.145Z" fill="#FFBA08"/>
<path d="M549.573 566.493C549.573 566.493 568.801 538.723 540.141 531.075C511.482 523.428 547.049 486.022 520.348 481.113C493.648 476.204 498.131 515.76 498.131 515.76C498.131 515.76 479.712 499.816 467.008 513.204C454.304 526.592 472.097 541.299 472.097 541.299C472.097 541.299 446.427 550.204 462.423 566.493H549.573Z" fill="#91AED4"/>
<path d="M511.359 567.551C511.359 567.551 523.477 546.576 541.553 549.152C559.63 551.728 557.61 567.551 557.61 567.551H511.359Z" fill="#647AA3"/>
</svg>
