<svg width="520" height="400" viewBox="0 0 520 400" fill="none" xmlns="http://www.w3.org/2000/svg">
<path opacity="0.3" d="M67.8043 277.253L456.046 277.253L456.046 -3.05176e-05L67.8043 -3.05176e-05L67.8043 277.253Z" fill="#91AED4"/>
<path d="M325.126 175.887H196.214V207.026H325.126V175.887Z" fill="white"/>
<path d="M219.435 195.623C221.571 195.623 223.302 193.889 223.302 191.75C223.302 189.61 221.571 187.876 219.435 187.876C217.299 187.876 215.567 189.61 215.567 191.75C215.567 193.889 217.299 195.623 219.435 195.623Z" fill="#0A3268"/>
<path d="M239.709 195.623C241.845 195.623 243.576 193.889 243.576 191.75C243.576 189.61 241.845 187.876 239.709 187.876C237.573 187.876 235.842 189.61 235.842 191.75C235.842 193.889 237.573 195.623 239.709 195.623Z" fill="#0A3268"/>
<path d="M261.322 195.623C263.458 195.623 265.19 193.889 265.19 191.75C265.19 189.61 263.458 187.876 261.322 187.876C259.187 187.876 257.455 189.61 257.455 191.75C257.455 193.889 259.187 195.623 261.322 195.623Z" fill="#0A3268"/>
<path d="M281.597 195.623C283.733 195.623 285.464 193.889 285.464 191.75C285.464 189.61 283.733 187.876 281.597 187.876C279.461 187.876 277.729 189.61 277.729 191.75C277.729 193.889 279.461 195.623 281.597 195.623Z" fill="#0A3268"/>
<path d="M301.888 195.623C304.024 195.623 305.755 193.889 305.755 191.75C305.755 189.61 304.024 187.876 301.888 187.876C299.752 187.876 298.021 189.61 298.021 191.75C298.021 193.889 299.752 195.623 301.888 195.623Z" fill="#0A3268"/>
<path opacity="0.4" d="M309.254 77.2197H210.729V145.787H309.254V77.2197Z" fill="#0A3268"/>
<path d="M124.743 241.251C124.743 241.251 131.892 274.403 150.76 272.692C169.628 270.982 175.873 216.953 175.873 216.953L168.941 210.43L124.743 241.251Z" fill="#E08DAC"/>
<path d="M106.327 166.312C106.327 166.312 146.976 172.365 150.827 216.953L124.157 228.372L106.327 166.312Z" fill="#2F80ED"/>
<path opacity="0.2" d="M124.157 228.373L106.327 166.328C106.327 166.328 146.976 172.382 150.827 216.97" fill="white"/>
<path opacity="0.08" d="M262.026 172.751L273.946 192.605L257.891 201.66L244.849 178.184L226.868 187.206L240.261 212.359L223.268 222.302L211.281 201.627L202.91 207.898C200.438 209.755 198.464 212.198 197.167 215.008C195.869 217.818 195.289 220.906 195.477 223.996C196.281 237.629 196.314 262.162 187.91 276.683L131.808 277.22L138.237 225.874L77.866 170.034L70.3992 145.401L65.6445 122.696L76.443 116.928C78.1113 116.035 80.0013 115.642 81.8866 115.797C83.772 115.951 85.573 116.647 87.074 117.8C91.0083 120.835 95.0431 126.067 92.7495 134.166C88.698 148.52 90.9414 164.35 100.334 166.53C109.726 168.71 148.232 157.039 156.737 178.553C165.241 200.067 169.712 201.861 190.304 184.841C210.896 167.821 245.284 150.935 245.284 150.935L262.026 172.751Z" fill="#0A3268"/>
<path opacity="0.45" d="M260 400C403.594 400 520 391.479 520 380.968C520 370.456 403.594 361.935 260 361.935C116.406 361.935 0 370.456 0 380.968C0 391.479 116.406 400 260 400Z" fill="#91AED4"/>
<path d="M67.5698 367.1C67.5698 367.1 64.2215 371.242 66.1802 375.35C68.139 379.458 64.9748 382.779 61.8776 379.844C58.7804 376.91 57.8931 365.138 57.8931 365.138L63.6857 362.036L67.5698 367.1Z" fill="#2F80ED"/>
<path d="M166.715 336.799C166.715 336.799 168.791 341.829 173.412 341.829C178.032 341.829 179.405 346.357 175.37 347.732C171.336 349.107 160.537 344.378 160.537 344.378V337.788L166.715 336.799Z" fill="#2F80ED"/>
<path d="M69.6123 127.593C69.6123 127.593 75.204 135.809 76.9786 142.366C77.3119 143.647 77.128 145.007 76.4668 146.153C75.8056 147.298 74.7203 148.137 73.4461 148.487C71.4335 149.15 69.2729 149.22 67.2218 148.687C65.1707 148.155 63.3156 147.044 61.8775 145.485L55.0469 139.331C53.8054 137.963 53.0179 136.243 52.793 134.408C52.5682 132.573 52.9169 130.713 53.7913 129.085C56.6876 122.847 66.4481 122.395 69.6123 127.593Z" fill="#E08DAC"/>
<path d="M58.1274 139.113L62.6645 166.161L80.9632 166.999L70.3155 145.871L58.1274 139.113Z" fill="#E08DAC"/>
<path d="M67.6537 129.136C65.0273 130.756 62.2171 132.056 59.2828 133.009C60.7405 133.746 61.9477 134.899 62.7521 136.323C63.5565 137.746 63.9222 139.376 63.8031 141.008C63.7541 142.616 63.1165 144.15 62.0117 145.317C61.6133 145.696 61.1324 145.976 60.6071 146.135C60.0817 146.295 59.5265 146.33 58.9854 146.237C58.4443 146.144 57.9322 145.926 57.4898 145.601C57.0474 145.275 56.6868 144.851 56.4367 144.361L51.9164 136.078C50.9833 134.508 50.4907 132.715 50.4907 130.888C50.4907 129.061 50.9833 127.268 51.9164 125.698C52.7245 124.339 53.6193 123.034 54.5951 121.791C57.0729 118.705 62.966 118.202 64.6402 114.413C64.8125 114.037 65.0783 113.712 65.4121 113.468C65.7459 113.225 66.1365 113.071 66.5466 113.022C66.9566 112.974 67.3723 113.031 67.7538 113.189C68.1352 113.348 68.4697 113.601 68.7252 113.926C71.1193 117.029 73.5133 122.696 69.9808 127.123C69.3178 127.915 68.532 128.594 67.6537 129.136Z" fill="#0A3268"/>
<path d="M64.5898 140.152C64.5898 140.152 62.6477 136.799 60.2871 138.476C57.9266 140.152 60.7057 144.932 64.3554 143.506L64.5898 140.152Z" fill="#E08DAC"/>
<path d="M72.8438 132.909L77.1296 134.887C77.3586 135.013 77.555 135.191 77.7031 135.406C77.8513 135.621 77.9471 135.869 77.9829 136.128C78.0187 136.387 77.9935 136.651 77.9093 136.898C77.8251 137.146 77.6842 137.37 77.498 137.553L74.5179 140.052L72.8438 132.909Z" fill="#E08DAC"/>
<path opacity="0.31" d="M71.9062 149.057C69.7089 149.193 67.5158 148.73 65.561 147.715C65.561 147.715 66.08 154.825 74.9532 155.11L71.9062 149.057Z" fill="#D24E7F"/>
<path d="M31.6254 176.054C55.6666 160.174 96.165 156.837 119.101 172.701C141.719 188.262 130.821 280.322 130.821 280.322L83.8598 294.491C83.8598 294.491 -6.9142 226.696 31.6254 176.054Z" fill="#2F80ED"/>
<path d="M76.3427 295.28L83.1733 311.78C84.0662 316.599 83.9311 321.552 82.7769 326.315C81.6228 331.078 79.4756 335.542 76.4766 339.415L59.4502 361.398L68.8423 368.106L93.5197 348.419C98.56 344.401 102.638 339.303 105.454 333.499C108.27 327.696 109.752 321.334 109.793 314.882V306.498L106.729 295.732L76.3427 295.28Z" fill="#0A3268"/>
<path opacity="0.08" d="M59.4501 181.504C59.4501 181.504 77.2634 189.888 74.8861 216.953C72.5087 244.018 72.5087 275.811 114.648 274.201V288.371L87.0406 292.53L54.143 260.669L51.2969 211.705L59.4501 181.504Z" fill="#0A3268"/>
<path opacity="0.08" d="M136.027 265.683L140.514 269.825L167.116 214.605L133.465 237.025L136.027 265.683Z" fill="#0A3268"/>
<path d="M92.666 307.806L101.807 313.809L135.458 303.379C137.099 302.87 138.827 302.703 140.534 302.887C142.242 303.072 143.894 303.605 145.389 304.453C146.884 305.302 148.189 306.447 149.225 307.82C150.261 309.192 151.006 310.762 151.413 312.434L157.641 338.124L169.059 337.168L165.359 302.457C164.694 296.217 161.773 290.437 157.147 286.206C152.521 281.974 146.51 279.583 140.246 279.484L114.28 279.131L92.666 307.806Z" fill="#0A3268"/>
<path d="M258.861 184.321L275.419 174.377L251.344 134.133L123.069 220.693C114.758 212.4 103.673 207.49 91.9573 206.91C80.2413 206.33 68.7268 210.122 59.6409 217.554C50.5549 224.985 44.5431 235.527 42.7681 247.141C40.9931 258.754 43.581 270.615 50.0313 280.428C56.4817 290.242 66.3361 297.311 77.6888 300.268C89.0414 303.225 101.086 301.861 111.492 296.438C121.898 291.016 129.927 281.921 134.026 270.913C138.125 259.904 138.003 247.764 133.683 236.841L213.474 182.93L229.178 207.294L245.384 196.814L229.48 172.131L245.234 161.516L258.861 184.321ZM89.5851 282.485C84.0223 282.485 78.5844 280.833 73.959 277.737C69.3337 274.642 65.7287 270.242 63.5999 265.094C61.4711 259.947 60.9141 254.283 61.9993 248.818C63.0846 243.353 65.7634 238.333 69.6969 234.394C73.6304 230.454 78.642 227.771 84.098 226.684C89.5539 225.597 95.2092 226.155 100.349 228.287C105.488 230.419 109.881 234.03 112.971 238.663C116.062 243.295 117.711 248.742 117.711 254.314C117.702 261.783 114.736 268.943 109.464 274.224C104.191 279.505 97.0419 282.476 89.5851 282.485Z" fill="#FFBA08"/>
<path d="M59.8687 193.997C61.5428 176.205 39.7785 166.244 27.624 179.391C17.9137 189.939 8.72249 207.73 9.62655 236.992C11.4849 297.359 29.3986 311.545 74.9195 308.627C80.3239 309.68 85.9212 309.03 90.9414 306.766C91.6777 306.384 92.2781 305.784 92.6601 305.046C93.0421 304.309 93.1872 303.472 93.0753 302.649C92.9634 301.826 92.6002 301.058 92.0353 300.45C91.4704 299.842 90.7316 299.424 89.9202 299.254C84.7972 298.247 78.3851 297.577 74.8526 299.539C74.8526 299.539 33.2492 286.358 45.4707 237.109C45.5712 237.109 57.9099 214.605 59.8687 193.997Z" fill="#E08DAC"/>
<path d="M27.2556 178.821C18.6169 185.981 8.08629 200.084 8.27045 226.209L51.3638 231.039C51.3638 231.039 76.4765 189.218 53.4733 176.071C49.3388 173.818 44.619 172.875 39.9378 173.366C35.2566 173.857 30.8344 175.759 27.2556 178.821Z" fill="#2F80ED"/>
<path opacity="0.2" d="M27.2556 178.821C18.6169 185.981 8.08629 200.084 8.27045 226.209L51.3638 231.039C51.3638 231.039 76.4765 189.218 53.4733 176.071C49.3388 173.818 44.619 172.875 39.9378 173.366C35.2566 173.857 30.8344 175.759 27.2556 178.821Z" fill="white"/>
<path d="M167.117 214.605C167.117 214.605 177.363 201.995 183.206 207.143C189.048 212.291 178.317 227.819 167.117 214.605Z" fill="#E08DAC"/>
<path opacity="0.08" d="M9.74414 226.377V239.088L45.5716 237.109L48.6018 231.039L9.74414 226.377Z" fill="#0A3268"/>
<path d="M95.897 28.9763C100.372 28.9763 104 25.3427 104 20.8603C104 16.3779 100.372 12.7443 95.897 12.7443C91.4218 12.7443 87.7939 16.3779 87.7939 20.8603C87.7939 25.3427 91.4218 28.9763 95.897 28.9763Z" fill="#FFBA08"/>
<path d="M120.005 28.9763C124.481 28.9763 128.108 25.3427 128.108 20.8603C128.108 16.3779 124.481 12.7443 120.005 12.7443C115.53 12.7443 111.902 16.3779 111.902 20.8603C111.902 25.3427 115.53 28.9763 120.005 28.9763Z" fill="#91AED4"/>
<path d="M142.724 28.9763C147.199 28.9763 150.827 25.3427 150.827 20.8603C150.827 16.3779 147.199 12.7443 142.724 12.7443C138.249 12.7443 134.621 16.3779 134.621 20.8603C134.621 25.3427 138.249 28.9763 142.724 28.9763Z" fill="#91AED4"/>
<path d="M297.267 77.2869H285.749V71.3005C285.749 64.4605 283.036 57.9006 278.207 53.064C273.378 48.2274 266.829 45.5102 260 45.5102C253.171 45.5102 246.622 48.2274 241.793 53.064C236.964 57.9006 234.251 64.4605 234.251 71.3005V77.2869H222.733V71.3005C222.733 61.4007 226.659 51.9064 233.648 44.9062C240.637 37.9061 250.116 33.9734 260 33.9734C269.884 33.9734 279.363 37.9061 286.352 44.9062C293.341 51.9064 297.267 61.4007 297.267 71.3005V77.2869Z" fill="white"/>
<path d="M261.272 109.366C266.598 109.366 270.915 105.041 270.915 99.7069C270.915 94.3725 266.598 90.0481 261.272 90.0481C255.946 90.0481 251.629 94.3725 251.629 99.7069C251.629 105.041 255.946 109.366 261.272 109.366Z" fill="#0A3268"/>
<path d="M267.082 104.67H256.518V130.41H267.082V104.67Z" fill="#0A3268"/>
<path d="M286.419 223.945H233.582V250.256H286.419V223.945Z" fill="#2F80ED"/>
<path opacity="0.13" d="M280.743 228.372H262.277V237.092H280.743V228.372Z" fill="white"/>
</svg>
