<svg width="450" height="391" viewBox="0 0 450 391" fill="none" xmlns="http://www.w3.org/2000/svg">
<path opacity="0.3" d="M61.6219 101.449C20.7947 126.64 -3.39978 172.842 0.388172 221.134C2.39607 245.777 11.453 269.599 35.3911 282.577C99.2308 317.185 377.944 317.833 419.184 256.621C460.424 195.409 445.088 108.327 355.387 72.0467C277.635 40.5826 167.072 36.4296 61.6219 101.449Z" fill="#91AED4"/>
<path d="M349.164 278.251V241.682C349.164 239.906 349.859 238.203 351.098 236.946C352.337 235.689 354.018 234.981 355.771 234.977H382.102C383.856 234.981 385.536 235.689 386.775 236.946C388.014 238.203 388.709 239.906 388.709 241.682V278.251" stroke="#FFBA08" stroke-width="2" stroke-miterlimit="10"/>
<path opacity="0.08" d="M349.164 278.251V241.682C349.164 239.906 349.859 238.203 351.098 236.946C352.337 235.689 354.018 234.981 355.771 234.977H382.102C383.856 234.981 385.536 235.689 386.775 236.946C388.014 238.203 388.709 239.906 388.709 241.682V278.251" stroke="#0A3268" stroke-width="2" stroke-miterlimit="10"/>
<path d="M171.97 191.357C171.97 191.357 145.853 201.97 154.298 232.713C162.743 263.456 163.526 266.787 182.366 264.898C201.206 263.009 189.002 232.713 189.002 232.713L171.97 191.357Z" fill="#FFBA08"/>
<path d="M162.159 96.4451C162.159 96.4451 89.7319 113.446 70.6782 156.417L134.831 161.32L151.265 151.226L162.159 96.4451Z" fill="#2F80ED"/>
<path opacity="0.46" d="M162.159 96.4451C162.159 96.4451 89.7319 113.446 70.6782 156.417L134.831 161.32L151.265 151.226L162.159 96.4451Z" fill="#F8FCFF"/>
<path opacity="0.45" d="M230.584 391C351.764 391 450 383.363 450 373.941C450 364.52 351.764 356.883 230.584 356.883C109.404 356.883 11.168 364.52 11.168 373.941C11.168 383.363 109.404 391 230.584 391Z" fill="#91AED4"/>
<path d="M137.124 336.406C137.124 336.406 130.787 341.049 124.963 337.718C119.138 334.387 114.04 338.829 118.028 343.674C122.015 348.519 139.103 350.884 139.103 350.884L145.526 340.386L137.124 336.406Z" fill="#2F80ED"/>
<path d="M251.461 356.926C251.461 356.926 254.223 364.352 260.888 364.813C267.552 365.275 269.432 371.85 263.437 373.667C257.442 375.484 241.905 367.899 241.905 367.899L242.276 355.541L251.461 356.926Z" fill="#2F80ED"/>
<path d="M167.613 58.7373C167.613 58.7373 170.091 67.8218 173.694 73.1571C174.044 73.6699 174.491 74.1076 175.009 74.4448C175.527 74.782 176.106 75.0122 176.712 75.1221C177.318 75.232 177.94 75.2194 178.541 75.0851C179.142 74.9508 179.712 74.6974 180.216 74.3396C182.822 72.465 185.812 69.1628 185.072 64.1303L184.858 55.4784C184.637 53.7379 183.889 52.1098 182.715 50.8184C181.542 49.5271 180.002 48.6361 178.308 48.2684C172.085 46.4948 165.904 53.301 167.613 58.7373Z" fill="#E08DAC"/>
<path d="M186.453 59.9773L198.514 88.3412L182.608 93.9505L180.216 71.0662L186.453 59.9773Z" fill="#E08DAC"/>
<path d="M188.489 61.8375C188.556 62.0229 188.559 62.2253 188.5 62.413C188.441 62.6008 188.322 62.7635 188.162 62.8757C187.071 63.6821 185.75 64.1045 184.4 64.0784C183.05 64.0524 181.745 63.5793 180.686 62.7316C179.469 61.8237 178.541 60.576 178.015 59.1415C177.489 57.7071 177.387 56.1483 177.724 54.6564C175.271 56.1708 172.652 57.3904 169.92 58.2902C169.003 58.6064 168.04 58.7624 167.072 58.7517L162.401 52.9837C162.401 52.9837 156.377 47.706 159.71 44.8076C163.042 41.9093 166.488 45.6873 168.41 41.2892C170.333 36.8911 170.604 35.4203 174.491 35.925C178.379 36.4297 175.673 40.424 180.942 38.3764C186.211 36.3288 187.151 38.4917 188.062 40.8999C188.266 41.7722 188.207 42.6866 187.891 43.5243C186.13 49.5336 186.34 55.9592 188.489 61.8375Z" fill="#0A3268"/>
<path d="M179.66 62.8179C179.66 62.8179 178.478 59.4004 181.084 58.7083C183.69 58.0161 185.442 63.0342 182.181 64.707L179.66 62.8179Z" fill="#E08DAC"/>
<path d="M169.464 64.3754L168.282 68.7013C168.192 68.9476 168.169 69.2143 168.217 69.4726C168.265 69.731 168.382 69.9711 168.555 70.1671C168.728 70.3631 168.95 70.5075 169.199 70.5846C169.447 70.6617 169.711 70.6687 169.963 70.6047L173.537 69.9847L169.464 64.3754Z" fill="#E08DAC"/>
<path d="M380.521 231.718H357.224V239.361H380.521V231.718Z" fill="#0A3268"/>
<path opacity="0.31" d="M180.586 74.1088C180.586 74.1088 182.637 73.4023 185.884 69.307C185.884 69.307 187.379 75.2913 181.241 80.8429L180.586 74.1088Z" fill="#D24E7F"/>
<path d="M176.044 91.6865L185.2 90.0138C189.481 89.231 193.721 88.2299 197.903 87.0145C213.567 82.4866 259.663 71.8304 272.779 98.8388C288.671 131.557 262.141 237.702 262.141 237.702H189.515C189.515 237.702 174.691 193.491 153.501 166.151C132.311 138.811 117.487 108.399 176.044 91.6865Z" fill="#2F80ED"/>
<path opacity="0.08" d="M162.159 96.4452C162.159 96.4452 158.514 119.978 190.441 102.213L182.252 90.6772C175.341 91.7312 168.589 93.6694 162.159 96.4452Z" fill="#0A3268"/>
<path d="M80.3476 182.647C65.8794 178.091 63.7148 158.134 76.8302 150.39C81.59 147.676 86.8989 146.097 92.3523 145.776C116.675 143.959 158.114 141.666 158.114 141.666C158.114 141.666 183.064 149.885 179.148 162.2C175.231 174.514 157.673 154.903 157.673 154.903C157.673 154.903 111.306 192.395 80.3476 182.647Z" fill="#E08DAC"/>
<path d="M158.418 140.098L149.899 141.3L152.316 158.867L160.835 157.665L158.418 140.098Z" fill="#0A3268"/>
<path d="M158.431 138.006L149.914 139.225L150.676 144.679L159.192 143.46L158.431 138.006Z" fill="#FFBA08"/>
<path d="M182.252 90.5619C182.252 90.5619 171.201 100.858 183.975 103.064C196.749 105.27 197.902 87.0146 197.902 87.0146L182.252 90.5619Z" fill="#E08DAC"/>
<path d="M189.586 237.702L134.832 336.406L148.973 346.37C148.973 346.37 179.219 295.252 215.233 269.57C216.398 268.748 217.737 268.213 219.143 268.009C220.548 267.805 221.982 267.938 223.327 268.397C224.673 268.855 225.894 269.627 226.892 270.649C227.891 271.672 228.638 272.917 229.075 274.285C238.815 304.784 239.641 357.921 239.641 357.921H256.331L262.141 237.746L189.586 237.702Z" fill="#0A3268"/>
<path opacity="0.08" d="M189.586 237.702C189.586 237.702 216.856 216.072 226.497 185.199C227.01 183.632 227.919 182.228 229.134 181.126C230.348 180.024 231.826 179.263 233.42 178.918C235.015 178.572 236.671 178.655 238.224 179.157C239.777 179.66 241.174 180.565 242.275 181.782L268.193 210.16L273.419 180.499L254.465 119.762L218.594 96.4451L211.473 124.578L189.586 237.702Z" fill="#0A3268"/>
<path d="M177.809 210.391C177.809 210.391 194.627 193.491 197.903 137.052C200.623 90.1004 207.273 80.9294 221.157 77.6416C242.603 72.537 247.716 78.9971 254.466 88.644C254.466 88.644 220.175 90.7926 221.371 112.523C222.567 134.254 217.797 211.66 189.586 237.702C189.586 237.702 176.499 236.592 177.809 210.391Z" fill="#FFBA08"/>
<path opacity="0.46" d="M177.809 210.391C177.809 210.391 194.627 193.491 197.903 137.052C200.623 90.1004 207.273 80.9294 221.157 77.6416C242.603 72.537 247.716 78.9971 254.466 88.644C254.466 88.644 220.175 90.7926 221.371 112.523C222.567 134.254 217.797 211.66 189.586 237.702C189.586 237.702 176.499 236.592 177.809 210.391Z" fill="#F8FCFF"/>
<path d="M224.817 116.402C217.697 99.0984 237.534 77.2668 254.722 84.0153C269.418 89.7832 285.125 102.53 293.655 128.198C313.919 189.208 359.574 218.697 359.574 218.697C359.574 218.697 382.871 222.59 382.871 231.17C382.871 239.75 355.33 231.17 355.33 231.17C355.33 231.17 283.843 201.133 246.761 152.87C235.682 138.378 228.876 126.251 224.817 116.402Z" fill="#E08DAC"/>
<path d="M267.509 175.235C267.509 175.235 295.905 165.502 303.11 151.27C303.11 151.27 292.829 95.1619 256.302 83.0925C244.283 79.127 230.854 83.5827 224.56 94.6284C216.927 108.097 218.593 132.928 267.509 175.235Z" fill="#2F80ED"/>
<path opacity="0.46" d="M267.509 175.235C267.509 175.235 295.905 165.502 303.11 151.27C303.11 151.27 292.829 95.1619 256.302 83.0925C244.283 79.127 230.854 83.5827 224.56 94.6284C216.927 108.097 218.593 132.928 267.509 175.235Z" fill="#F8FCFF"/>
<path d="M406.069 267.378H331.791V364.756H406.069V267.378Z" fill="#FFBA08"/>
<path d="M350.802 364.756H341.731V373.941H350.802V364.756Z" fill="#0A3268"/>
<path d="M394.89 364.756H385.819V373.941H394.89V364.756Z" fill="#0A3268"/>
<path opacity="0.08" d="M354.433 285.475H344.109V343.66H354.433V285.475Z" fill="#0A3268"/>
<path opacity="0.08" d="M374.099 285.475H363.775V343.66H374.099V285.475Z" fill="#0A3268"/>
<path opacity="0.08" d="M392.568 285.475H382.244V343.66H392.568V285.475Z" fill="#0A3268"/>
<path d="M292.103 31.3394C292.103 48.0954 278.689 61.6788 262.141 61.6788C253.131 61.6788 245.051 57.652 239.558 51.2787C239.558 51.2787 225.024 58.1223 224.916 57.1943C224.808 56.2662 235.943 46.0722 235.943 46.0722C233.545 41.7098 232.179 36.6861 232.179 31.3394C232.179 14.5834 245.594 1 262.141 1C278.689 1 292.103 14.5834 292.103 31.3394Z" fill="#0A3268"/>
<g filter="url(#filter0_d)">
<path d="M273.02 17.9586C273.243 17.9537 273.464 18.0063 273.662 18.1116C273.859 18.2169 274.027 18.3713 274.15 18.5603C275.798 20.9931 270.538 26.168 269.051 27.5864C268.926 27.7009 268.829 27.8443 268.77 28.0044C268.711 28.1644 268.691 28.3366 268.711 28.5062L270.292 42.2603C270.308 42.4283 270.286 42.598 270.227 42.756C270.168 42.914 270.074 43.0562 269.952 43.1715L269.688 43.4208C269.484 43.6095 269.217 43.7138 268.94 43.713C268.729 43.7204 268.519 43.6649 268.338 43.5534C268.157 43.4419 268.012 43.2793 267.921 43.0855L263.672 34.8331C263.578 34.6531 263.438 34.5025 263.265 34.3979C263.093 34.2933 262.896 34.2387 262.695 34.2399C262.553 34.2395 262.412 34.2673 262.281 34.3219C262.15 34.3765 262.03 34.4567 261.93 34.558L258.802 37.6784C258.696 37.8064 258.62 37.9574 258.58 38.1199C258.54 38.2824 258.538 38.4519 258.573 38.6154L259.346 43.6958C259.374 43.8927 259.348 44.0933 259.272 44.2764C259.195 44.4596 259.071 44.6184 258.913 44.736C258.728 44.873 258.505 44.9454 258.276 44.9423C258.083 44.9449 257.893 44.8953 257.726 44.7986C257.558 44.7018 257.419 44.5615 257.324 44.3921L254.239 38.8991C254.138 38.7247 253.991 38.5819 253.814 38.4865L248.375 35.452C248.24 35.3777 248.121 35.2742 248.029 35.1488C247.936 35.0234 247.872 34.8792 247.841 34.7261C247.809 34.573 247.811 34.4149 247.846 34.2626C247.881 34.1103 247.949 33.9676 248.044 33.8445C248.145 33.7134 248.274 33.6068 248.421 33.5325C248.568 33.4581 248.73 33.4179 248.894 33.4147H249.055L253.942 34.1454H254.103C254.392 34.1467 254.67 34.0323 254.876 33.8273L258.004 30.6983C258.122 30.5781 258.211 30.4312 258.263 30.2696C258.315 30.1079 258.328 29.9362 258.302 29.7684C258.275 29.6006 258.21 29.4415 258.111 29.3043C258.012 29.1671 257.882 29.0556 257.732 28.979L249.616 24.8614C249.475 24.7916 249.351 24.6914 249.253 24.5677C249.154 24.4441 249.084 24.3001 249.047 24.1459C249.009 23.9917 249.006 23.8311 249.037 23.6755C249.068 23.5199 249.132 23.373 249.225 23.2453L249.514 22.8584C249.614 22.7258 249.743 22.6175 249.89 22.5417C250.037 22.4658 250.199 22.4242 250.364 22.42H250.483L264.08 23.9502H264.207C264.353 23.9517 264.498 23.9227 264.633 23.865C264.767 23.8073 264.888 23.7222 264.989 23.6149C266.264 22.2739 270.555 17.9414 272.926 17.9414L273.02 17.9586ZM272.926 16.394C270.326 16.394 266.689 19.6176 264.037 22.4114L250.678 20.8985H250.389C249.983 20.8965 249.582 20.9902 249.218 21.1722C248.853 21.3543 248.536 21.6196 248.291 21.9472L248.019 22.3169C247.79 22.6238 247.631 22.9777 247.553 23.3536C247.475 23.7295 247.48 24.1181 247.566 24.4921C247.653 24.866 247.82 25.2161 248.055 25.5176C248.291 25.8191 248.588 26.0646 248.928 26.2368L256.457 30.0879L253.908 32.6066L249.225 31.9017C249.098 31.8932 248.97 31.8932 248.843 31.9017C248.441 31.9029 248.045 31.9964 247.685 32.1751C247.324 32.3538 247.008 32.6131 246.761 32.9333C246.534 33.2327 246.373 33.578 246.289 33.9459C246.206 34.3137 246.201 34.6955 246.276 35.0652C246.356 35.4358 246.513 35.7851 246.735 36.0903C246.958 36.3955 247.242 36.6496 247.568 36.836L252.896 39.8103L255.947 45.2088C256.128 45.5327 256.374 45.8146 256.669 46.0362C256.965 46.2578 257.303 46.4142 257.662 46.4953C258.021 46.5763 258.392 46.5802 258.753 46.5066C259.113 46.4331 259.454 46.2838 259.754 46.0684C260.153 45.7829 260.464 45.3895 260.652 44.9334C260.84 44.4773 260.897 43.9769 260.816 43.4895L260.077 38.6498L262.627 36.0709L266.578 43.8076C266.763 44.1696 267.028 44.4835 267.352 44.7247C267.677 44.9659 268.052 45.1278 268.449 45.1977C268.846 45.2677 269.253 45.2437 269.639 45.1278C270.025 45.0119 270.379 44.8072 270.674 44.5297L270.938 44.2804C271.243 44.0038 271.48 43.6577 271.627 43.2707C271.775 42.8836 271.83 42.4666 271.787 42.054L270.207 28.5406C273.759 25.2138 277.455 20.6922 275.407 17.7007C275.147 17.3016 274.792 16.9746 274.375 16.7495C273.958 16.5243 273.492 16.408 273.02 16.4112L272.926 16.394Z" fill="white"/>
<path d="M273.02 17.9586C273.243 17.9537 273.464 18.0063 273.662 18.1116C273.859 18.2169 274.027 18.3713 274.15 18.5603C275.798 20.9931 270.538 26.168 269.051 27.5864C268.926 27.7009 268.829 27.8443 268.77 28.0044C268.711 28.1644 268.691 28.3366 268.711 28.5062L270.292 42.2603C270.308 42.4283 270.286 42.598 270.227 42.756C270.168 42.914 270.074 43.0562 269.952 43.1715L269.688 43.4208C269.484 43.6095 269.217 43.7138 268.94 43.713C268.729 43.7204 268.519 43.6649 268.338 43.5534C268.157 43.4419 268.012 43.2793 267.921 43.0855L263.672 34.8331C263.578 34.6531 263.438 34.5025 263.265 34.3979C263.093 34.2933 262.896 34.2387 262.695 34.2399C262.553 34.2395 262.412 34.2673 262.281 34.3219C262.15 34.3765 262.03 34.4567 261.93 34.558L258.802 37.6784C258.696 37.8064 258.62 37.9574 258.58 38.1199C258.54 38.2824 258.538 38.4519 258.573 38.6154L259.346 43.6958C259.374 43.8927 259.348 44.0933 259.272 44.2764C259.195 44.4596 259.071 44.6184 258.913 44.736C258.728 44.873 258.505 44.9454 258.276 44.9423C258.083 44.9449 257.893 44.8953 257.726 44.7986C257.558 44.7018 257.419 44.5615 257.324 44.3921L254.239 38.8991C254.138 38.7247 253.991 38.5819 253.814 38.4865L248.375 35.452C248.24 35.3777 248.121 35.2742 248.029 35.1488C247.936 35.0234 247.872 34.8792 247.841 34.7261C247.809 34.573 247.811 34.4149 247.846 34.2626C247.881 34.1103 247.949 33.9676 248.044 33.8445C248.145 33.7134 248.274 33.6068 248.421 33.5325C248.568 33.4581 248.73 33.4179 248.894 33.4147H249.055L253.942 34.1454H254.103C254.392 34.1467 254.67 34.0323 254.876 33.8273L258.004 30.6983C258.122 30.5781 258.211 30.4312 258.263 30.2696C258.315 30.1079 258.328 29.9362 258.302 29.7684C258.275 29.6006 258.21 29.4415 258.111 29.3043C258.012 29.1671 257.882 29.0556 257.732 28.979L249.616 24.8614C249.475 24.7916 249.351 24.6914 249.253 24.5677C249.154 24.4441 249.084 24.3001 249.047 24.1459C249.009 23.9917 249.006 23.8311 249.037 23.6755C249.068 23.5199 249.132 23.373 249.225 23.2453L249.514 22.8584C249.614 22.7258 249.743 22.6175 249.89 22.5417C250.037 22.4658 250.199 22.4242 250.364 22.42H250.483L264.08 23.9502H264.207C264.353 23.9517 264.498 23.9227 264.633 23.865C264.767 23.8073 264.888 23.7222 264.989 23.6149C266.264 22.2739 270.555 17.9414 272.926 17.9414L273.02 17.9586ZM272.926 16.394C270.326 16.394 266.689 19.6176 264.037 22.4114L250.678 20.8985H250.389C249.983 20.8965 249.582 20.9902 249.218 21.1722C248.853 21.3543 248.536 21.6196 248.291 21.9472L248.019 22.3169C247.79 22.6238 247.631 22.9777 247.553 23.3536C247.475 23.7295 247.48 24.1181 247.566 24.4921C247.653 24.866 247.82 25.2161 248.055 25.5176C248.291 25.8191 248.588 26.0646 248.928 26.2368L256.457 30.0879L253.908 32.6066L249.225 31.9017C249.098 31.8932 248.97 31.8932 248.843 31.9017C248.441 31.9029 248.045 31.9964 247.685 32.1751C247.324 32.3538 247.008 32.6131 246.761 32.9333C246.534 33.2327 246.373 33.578 246.289 33.9459C246.206 34.3137 246.201 34.6955 246.276 35.0652C246.356 35.4358 246.513 35.7851 246.735 36.0903C246.958 36.3955 247.242 36.6496 247.568 36.836L252.896 39.8103L255.947 45.2088C256.128 45.5327 256.374 45.8146 256.669 46.0362C256.965 46.2578 257.303 46.4142 257.662 46.4953C258.021 46.5763 258.392 46.5802 258.753 46.5066C259.113 46.4331 259.454 46.2838 259.754 46.0684C260.153 45.7829 260.464 45.3895 260.652 44.9334C260.84 44.4773 260.897 43.9769 260.816 43.4895L260.077 38.6498L262.627 36.0709L266.578 43.8076C266.763 44.1696 267.028 44.4835 267.352 44.7247C267.677 44.9659 268.052 45.1278 268.449 45.1977C268.846 45.2677 269.253 45.2437 269.639 45.1278C270.025 45.0119 270.379 44.8072 270.674 44.5297L270.938 44.2804C271.243 44.0038 271.48 43.6577 271.627 43.2707C271.775 42.8836 271.83 42.4666 271.787 42.054L270.207 28.5406C273.759 25.2138 277.455 20.6922 275.407 17.7007C275.147 17.3016 274.792 16.9746 274.375 16.7495C273.958 16.5243 273.492 16.408 273.02 16.4112L272.926 16.394Z" stroke="white"/>
</g>
<ellipse cx="389.756" cy="110.911" rx="23.8167" ry="24.132" fill="#2F80ED"/>
<path d="M404.382 107.943C404.381 107.943 404.38 107.942 404.379 107.941L392.234 95.6365C391.716 95.1118 391.028 94.823 390.296 94.823C389.564 94.823 388.875 95.1118 388.357 95.6365L376.218 107.935C376.214 107.939 376.21 107.943 376.206 107.947C375.143 109.031 375.145 110.788 376.211 111.869C376.699 112.363 377.342 112.649 378.03 112.679C378.058 112.681 378.086 112.683 378.115 112.683H378.599V121.738C378.599 123.53 380.038 124.988 381.807 124.988H386.558C387.04 124.988 387.431 124.592 387.431 124.104V117.005C387.431 116.187 388.087 115.522 388.894 115.522H391.697C392.504 115.522 393.161 116.187 393.161 117.005V124.104C393.161 124.592 393.551 124.988 394.033 124.988H398.785C400.554 124.988 401.993 123.53 401.993 121.738V112.683H402.442C403.174 112.683 403.862 112.394 404.38 111.869C405.448 110.787 405.448 109.026 404.382 107.943ZM403.146 110.619C402.958 110.81 402.708 110.915 402.442 110.915H401.12C400.639 110.915 400.248 111.311 400.248 111.799V121.738C400.248 122.555 399.592 123.221 398.785 123.221H394.905V117.005C394.905 115.213 393.466 113.755 391.697 113.755H388.894C387.125 113.755 385.686 115.213 385.686 117.005V123.221H381.807C381 123.221 380.343 122.555 380.343 121.738V111.799C380.343 111.311 379.953 110.915 379.471 110.915H378.172C378.159 110.914 378.145 110.914 378.132 110.914C377.872 110.909 377.628 110.804 377.445 110.619C377.057 110.226 377.057 109.585 377.445 109.191C377.446 109.191 377.446 109.191 377.446 109.191L377.446 109.19L389.591 96.8862C389.779 96.6954 390.03 96.5905 390.296 96.5905C390.562 96.5905 390.812 96.6954 391 96.8862L403.142 109.188C403.144 109.19 403.146 109.191 403.148 109.193C403.534 109.587 403.534 110.227 403.146 110.619Z" fill="white"/>
<ellipse cx="31.5135" cy="76.724" rx="23.8167" ry="24.132" fill="#FFBA08"/>
<path d="M46.5765 65.7647C46.5804 65.4003 46.4651 65.0435 46.2461 64.7425C46.0271 64.4415 45.715 64.2108 45.3518 64.0814C42.7078 63.1254 39.8972 62.6392 37.0636 62.6476C34.036 62.6284 31.0336 63.1639 28.2248 64.2239C27.8816 64.3726 27.5921 64.6118 27.3915 64.9123C27.1908 65.2128 27.0878 65.5616 27.095 65.9161C27.095 65.9161 27.095 66.8066 27.152 68.0356C21.9144 69.1276 17.2278 71.8565 13.8605 75.7749C13.6827 76.0147 13.567 76.29 13.5225 76.5791C13.478 76.8682 13.506 77.1631 13.6042 77.4403C15.0318 81.3208 16.7252 85.1107 18.6739 88.7863C19.6468 90.3087 21.0204 91.571 22.6629 92.4522C24.3054 93.3333 26.1618 93.8037 28.0539 93.8182C28.9892 93.8188 29.9197 93.6928 30.8166 93.4441C31.0408 93.3893 31.2507 93.2924 31.4337 93.1591C33.1267 91.7513 34.3913 89.9474 35.0984 87.9314C35.5648 88.1076 36.048 88.2418 36.5414 88.3321C36.6488 88.3407 36.7568 88.3407 36.8642 88.3321C36.9811 88.3414 37.0986 88.3414 37.2155 88.3321C41.3264 87.593 45.8075 83.7901 46.4436 77.9746C46.7126 73.9095 46.757 69.8341 46.5765 65.7647ZM30.2755 91.6986C29.5484 91.9019 28.7935 92.0039 28.0349 92.0014C26.4894 91.9837 24.9736 91.6007 23.6278 90.8877C22.282 90.1747 21.1496 89.1549 20.3353 87.9225C18.4239 84.3341 16.7621 80.6334 15.3605 76.8436C18.9158 72.7819 23.9815 70.1369 29.5349 69.4428C29.5349 69.4428 33.4559 77.6718 34.2154 82.6858C34.5287 84.6807 32.7439 89.9619 30.2755 91.6986ZM44.5163 77.7787C43.9372 83.0688 39.8168 85.9988 36.8358 86.5421C36.4342 86.4799 36.0399 86.3815 35.6585 86.2482C36.0571 85.0143 36.2116 83.7225 36.1142 82.4365C35.9813 81.5993 35.7629 80.6553 35.5066 79.7202C35.7875 79.6259 36.082 79.5719 36.38 79.5599C37.5912 79.6446 38.7435 80.0838 39.6744 80.8156C39.842 80.9512 40.06 81.0189 40.2807 81.0039C40.5014 80.9889 40.7068 80.8923 40.8517 80.7354C40.9974 80.5753 41.0701 80.3679 41.0541 80.1579C41.0381 79.948 40.9347 79.7523 40.7662 79.6133C39.5303 78.5979 37.9558 78.0185 36.3136 77.9746C35.8867 77.9928 35.4648 78.0677 35.0604 78.1973C34.5287 76.5319 33.8926 74.8397 33.285 73.3525H33.3705C33.8418 73.3575 34.3071 73.2528 34.7247 73.0476C35.1423 72.8424 35.499 72.5432 35.7629 72.1769C35.8766 72.0016 35.9124 71.7914 35.8627 71.5916C35.813 71.3918 35.6817 71.2182 35.4971 71.1082C35.4062 71.0516 35.3043 71.0125 35.1973 70.9931C35.0902 70.9736 34.9801 70.9743 34.8733 70.995C34.7665 71.0157 34.6651 71.056 34.575 71.1137C34.4849 71.1713 34.4079 71.2451 34.3483 71.3308C34.2334 71.4614 34.0881 71.5655 33.9234 71.635C33.7588 71.7045 33.5794 71.7375 33.399 71.7316C33.2161 71.7312 33.0365 71.6857 32.8782 71.5998C32.7199 71.5138 32.5885 71.3903 32.497 71.2418C32.4772 71.2134 32.455 71.1866 32.4306 71.1616C31.823 69.7634 31.3768 68.8105 31.3198 68.6947C31.1722 68.3775 30.9293 68.1075 30.6207 67.9177C30.3122 67.7279 29.9514 67.6265 29.5824 67.626H29.3071L29.0982 67.6705C29.0982 66.5662 29.0507 65.8893 29.0507 65.8893C31.6151 64.9343 34.3521 64.4535 37.1111 64.4733C39.7081 64.4659 42.2839 64.9129 44.7062 65.7914C44.7062 65.7914 44.972 73.6285 44.5258 77.7787H44.5163Z" fill="white"/>
<path d="M40.6711 73.4681H40.6236C40.1306 73.4614 39.6489 73.3284 39.2306 73.0835C38.8123 72.8387 38.4733 72.4913 38.2501 72.0788C38.1524 71.8927 38.1353 71.6783 38.2026 71.4806C38.2699 71.283 38.4162 71.1175 38.6109 71.019C38.7093 70.9737 38.8162 70.9473 38.9255 70.9412C39.0349 70.9351 39.1444 70.9494 39.2478 70.9834C39.3512 71.0174 39.4463 71.0703 39.5277 71.1391C39.609 71.2079 39.675 71.2912 39.7217 71.3841C39.8116 71.5339 39.9428 71.6584 40.1014 71.7446C40.26 71.8307 40.4403 71.8754 40.6236 71.874C40.8034 71.8894 40.9844 71.8625 41.1502 71.7956C41.316 71.7288 41.4614 71.624 41.573 71.491C41.6295 71.4024 41.7043 71.3253 41.7929 71.2641C41.8816 71.203 41.9824 71.1592 42.0895 71.1351C42.1965 71.111 42.3075 71.1073 42.4161 71.124C42.5247 71.1408 42.6286 71.1778 42.7218 71.2327C42.91 71.3463 43.0438 71.524 43.0952 71.7283C43.1465 71.9326 43.1114 72.1477 42.9971 72.3282C42.7387 72.6825 42.3914 72.9718 41.9858 73.1706C41.5802 73.3693 41.1287 73.4715 40.6711 73.4681Z" fill="white"/>
<path d="M20.5064 82.4007C20.3958 82.3996 20.2866 82.3779 20.1851 82.3369C20.0836 82.2958 19.9918 82.2363 19.915 82.1618C19.8381 82.0872 19.7778 81.9991 19.7376 81.9025C19.6973 81.806 19.6779 81.7029 19.6804 81.5992C19.7099 81.1566 19.8564 80.7278 20.1067 80.3515C20.3569 79.9753 20.7031 79.6634 21.114 79.444C21.5331 79.2049 22.0143 79.0785 22.5048 79.0785C22.9954 79.0785 23.4765 79.2049 23.8957 79.444C24.0837 79.5604 24.2151 79.7417 24.2614 79.9485C24.3076 80.1553 24.2649 80.3709 24.1425 80.5483C24.0847 80.6357 24.0086 80.7112 23.9189 80.7704C23.8292 80.8296 23.7278 80.8713 23.6206 80.8929C23.5133 80.9145 23.4026 80.9156 23.2949 80.8962C23.1872 80.8768 23.0848 80.8372 22.9938 80.7799C22.8341 80.6964 22.6544 80.6526 22.4716 80.6526C22.2888 80.6526 22.1091 80.6964 21.9494 80.7799C21.7889 80.8592 21.6509 80.9732 21.5469 81.1127C21.4428 81.2521 21.3758 81.4128 21.3513 81.5814C21.3551 81.6877 21.3361 81.7937 21.2954 81.8929C21.2546 81.9922 21.193 82.0828 21.1141 82.1592C21.0353 82.2357 20.9408 82.2965 20.8364 82.338C20.732 82.3794 20.6198 82.4008 20.5064 82.4007Z" fill="white"/>
<path d="M26.9624 78.9275C26.8519 78.9264 26.7427 78.9046 26.6412 78.8636C26.5397 78.8226 26.4478 78.7631 26.371 78.6885C26.2942 78.614 26.2339 78.5259 26.1936 78.4293C26.1534 78.3327 26.1339 78.2296 26.1364 78.126C26.1644 77.6818 26.3102 77.2512 26.5605 76.8733C26.8109 76.4954 27.1579 76.1821 27.57 75.9619C27.9899 75.7247 28.4708 75.5994 28.9609 75.5994C29.451 75.5994 29.9318 75.7247 30.3517 75.9619C30.5397 76.0782 30.6712 76.2596 30.7174 76.4664C30.7636 76.6732 30.7209 76.8888 30.5986 77.0662C30.5407 77.1536 30.4646 77.2291 30.375 77.2883C30.2853 77.3475 30.1838 77.3892 30.0766 77.4108C29.9694 77.4324 29.8586 77.4335 29.7509 77.4141C29.6433 77.3947 29.5408 77.3551 29.4498 77.2977C29.2911 77.2118 29.111 77.1665 28.9276 77.1665C28.7443 77.1665 28.5642 77.2118 28.4055 77.2977C28.2461 77.3762 28.1089 77.4889 28.0049 77.6266C27.9009 77.7644 27.8333 77.9233 27.8074 78.0904C27.8125 78.1978 27.7945 78.3052 27.7544 78.406C27.7144 78.5068 27.6531 78.599 27.5742 78.6771C27.4954 78.7552 27.4006 78.8176 27.2955 78.8607C27.1904 78.9037 27.0771 78.9264 26.9624 78.9275Z" fill="white"/>
<path d="M25.5382 87.0497C24.8992 87.0473 24.2624 86.9786 23.6394 86.8448C23.4242 86.7885 23.2411 86.6553 23.1293 86.4739C23.0175 86.2924 22.9859 86.0771 23.0413 85.8741C23.0679 85.773 23.1156 85.678 23.1818 85.5944C23.2479 85.5108 23.3311 85.4405 23.4266 85.3874C23.522 85.3344 23.6278 85.2997 23.7377 85.2854C23.8476 85.2711 23.9594 85.2774 24.0667 85.3041C25.243 85.5845 26.4852 85.4905 27.5984 85.0369C28.599 84.3665 29.3311 83.4007 29.6776 82.2939C29.7063 82.1931 29.7561 82.0987 29.8242 82.0163C29.8923 81.9338 29.9773 81.8649 30.0741 81.8136C30.171 81.7623 30.2777 81.7297 30.3882 81.7177C30.4987 81.7056 30.6106 81.7144 30.7174 81.7434C30.8242 81.7725 30.9238 81.8212 31.0102 81.8868C31.0967 81.9524 31.1683 82.0336 31.2209 82.1255C31.2735 82.2174 31.306 82.3183 31.3165 82.4221C31.327 82.526 31.3153 82.6308 31.282 82.7303C30.8226 84.2392 29.815 85.5498 28.4339 86.4352C27.5399 86.8672 26.5434 87.0787 25.5382 87.0497Z" fill="white"/>
<defs>
<filter id="filter0_d" x="227.223" y="0.394043" width="69.7709" height="70.165" filterUnits="userSpaceOnUse" color-interpolation-filters="sRGB">
<feFlood flood-opacity="0" result="BackgroundImageFix"/>
<feColorMatrix in="SourceAlpha" type="matrix" values="0 0 0 0 0 0 0 0 0 0 0 0 0 0 0 0 0 0 127 0"/>
<feOffset dx="1" dy="4"/>
<feGaussianBlur stdDeviation="10"/>
<feColorMatrix type="matrix" values="0 0 0 0 0.184314 0 0 0 0 0.501961 0 0 0 0 0.929412 0 0 0 0.4 0"/>
<feBlend mode="normal" in2="BackgroundImageFix" result="effect1_dropShadow"/>
<feBlend mode="normal" in="SourceGraphic" in2="effect1_dropShadow" result="shape"/>
</filter>
</defs>
</svg>
