<svg width="532" height="385" viewBox="0 0 532 385" fill="none" xmlns="http://www.w3.org/2000/svg">
<path opacity="0.7" d="M133.963 348.948L196.519 298.117L257.319 359.869L303.395 311.235L339.076 326.402L393.58 288.41L425.899 327.763L454.79 384.465H108.269L133.963 348.948Z" fill="#91AED4"/>
<path opacity="0.7" d="M196.519 298.117L163.478 356.589L156.362 384.464H108.269L133.963 348.948L196.519 298.117Z" fill="#91AED4"/>
<path opacity="0.7" d="M257.319 359.869L277.438 376.266L303.395 311.235L257.319 359.869Z" fill="#91AED4"/>
<path opacity="0.7" d="M339.075 326.402L358.325 349.489L390.3 309.857L393.579 288.41L339.075 326.402Z" fill="#91AED4"/>
<path d="M286.589 246.187L254.204 358.508L245.137 347.505C249.964 313.412 251.354 278.919 249.285 244.547C245.596 189.617 286.589 246.187 286.589 246.187Z" fill="#E08DAC"/>
<path opacity="0.08" d="M286.589 246.187L254.204 358.508L245.137 347.505C249.964 313.412 251.354 278.919 249.285 244.547C245.596 189.617 286.589 246.187 286.589 246.187Z" fill="#0A3268"/>
<path d="M213.605 56.4393L137.316 74.5577C125.14 77.4496 117.613 89.665 120.505 101.842L152.161 235.132C155.053 247.309 167.268 254.836 179.445 251.944L255.734 233.825C267.91 230.934 275.437 218.718 272.545 206.542L240.889 73.2507C237.997 61.0742 225.782 53.5474 213.605 56.4393Z" fill="#FFBA08"/>
<path opacity="0.08" d="M213.605 56.4393L137.316 74.5577C125.14 77.4496 117.613 89.665 120.505 101.842L152.161 235.132C155.053 247.309 167.268 254.836 179.445 251.944L255.734 233.825C267.91 230.934 275.437 218.718 272.545 206.542L240.889 73.2507C237.997 61.0742 225.782 53.5474 213.605 56.4393Z" fill="#0A3268"/>
<path d="M237.775 50.6787L161.486 68.7971C149.309 71.689 141.782 83.9044 144.674 96.0809L176.33 229.372C179.222 241.548 191.438 249.075 203.614 246.183L279.903 228.065C292.08 225.173 299.607 212.957 296.715 200.781L265.059 67.4901C262.167 55.3135 249.951 47.7868 237.775 50.6787Z" fill="#FFBA08"/>
<path d="M257.303 96.7597C257.303 96.7597 286.424 162.135 333.402 156.331C380.38 150.526 414.273 63.949 414.273 63.949L398.499 55.98C398.499 55.98 344.388 145.328 316.513 101.4L312.577 97.8911C305.006 91.1544 295.282 87.3355 285.149 87.1192C275.017 86.9028 265.139 90.3032 257.286 96.7105L257.303 96.7597Z" fill="#2F80ED"/>
<path opacity="0.35" d="M257.303 96.7597C257.303 96.7597 286.424 162.135 333.402 156.331C380.38 150.526 414.273 63.949 414.273 63.949L398.499 55.98C398.499 55.98 344.388 145.328 316.513 101.4L312.577 97.8911C305.006 91.1544 295.282 87.3355 285.149 87.1192C275.017 86.9028 265.139 90.3032 257.286 96.7105L257.303 96.7597Z" fill="#F8FCFF"/>
<path d="M240.48 22.8739C240.48 22.8739 244.711 32.991 245.186 40.4681C245.233 41.1923 245.135 41.9187 244.899 42.6051C244.664 43.2915 244.294 43.9243 243.812 44.4671C243.331 45.0099 242.746 45.4518 242.092 45.7674C241.439 46.0829 240.729 46.2658 240.005 46.3054C236.233 46.4858 231.084 45.6332 228.149 40.5009L222.099 32.3023C221.057 30.549 220.586 28.5154 220.75 26.4826C220.915 24.4497 221.707 22.5183 223.017 20.9554C227.543 14.9869 238.201 16.6266 240.48 22.8739Z" fill="#E08DAC"/>
<path d="M223.279 36.2871L225.46 72.1477L245.137 69.5242L235.889 45.1252L223.279 36.2871Z" fill="#E08DAC"/>
<path d="M238.02 24.1366C234.845 25.308 231.542 26.1006 228.182 26.4978C229.569 27.615 230.599 29.1142 231.144 30.8102C231.689 32.5062 231.725 34.3247 231.248 36.041C230.817 37.7146 229.817 39.1863 228.42 40.2035C227.023 41.2207 225.315 41.7201 223.59 41.616L219.442 28.1048C218.784 26.2003 218.655 24.1534 219.068 22.1814C219.481 20.2095 220.42 18.3862 221.787 16.9055C222.958 15.6117 224.219 14.4009 225.558 13.2817C228.919 10.4942 235.396 11.2485 238.036 7.52631C238.301 7.15623 238.658 6.861 239.071 6.6693C239.484 6.4776 239.939 6.39593 240.393 6.43224C240.847 6.46854 241.283 6.62158 241.66 6.87649C242.038 7.1314 242.343 7.47952 242.545 7.88704C244.464 11.7732 245.825 18.4304 241.004 22.4313C240.114 23.1666 239.105 23.7435 238.02 24.1366Z" fill="#0A3268"/>
<path d="M232.248 35.3689C232.248 35.3689 230.887 31.3844 227.968 32.6634C225.05 33.9423 226.985 39.7305 231.248 38.9435L232.248 35.3689Z" fill="#E08DAC"/>
<path d="M242.824 29.3837L247.022 32.4663C247.259 32.6443 247.447 32.8786 247.569 33.148C247.692 33.4174 247.745 33.7131 247.724 34.0083C247.703 34.3035 247.608 34.5887 247.448 34.8378C247.288 35.0869 247.068 35.2919 246.809 35.4342L243.07 37.4675L242.824 29.3837Z" fill="#E08DAC"/>
<path opacity="0.31" d="M236.168 45.8137C233.734 45.7119 231.376 44.9464 229.346 43.6001C229.346 43.6001 229.1 51.4543 238.824 52.7989L236.168 45.8137Z" fill="#D24E7F"/>
<path d="M525.101 45.5022C528.678 45.5022 531.578 42.6024 531.578 39.0253C531.578 35.4483 528.678 32.5485 525.101 32.5485C521.524 32.5485 518.625 35.4483 518.625 39.0253C518.625 42.6024 521.524 45.5022 525.101 45.5022Z" fill="#91AED4"/>
<path d="M31.4815 196.914C35.0586 196.914 37.9584 194.014 37.9584 190.437C37.9584 186.86 35.0586 183.96 31.4815 183.96C27.9044 183.96 25.0046 186.86 25.0046 190.437C25.0046 194.014 27.9044 196.914 31.4815 196.914Z" fill="#91AED4"/>
<path d="M518.625 366.346C522.202 366.346 525.102 363.446 525.102 359.869C525.102 356.292 522.202 353.392 518.625 353.392C515.048 353.392 512.148 356.292 512.148 359.869C512.148 363.446 515.048 366.346 518.625 366.346Z" fill="#91AED4"/>
<path d="M261.861 60.1613C261.861 60.1613 296.558 59.079 308.856 72.1476C321.153 85.2161 341.765 112.025 315.333 156.691L261.861 60.1613Z" fill="#FFBA08"/>
<path d="M237.068 219.706C237.068 219.706 247.415 247.942 265.386 250.647C276.471 252.287 297.426 252.746 311.889 252.828C316.344 252.861 320.665 254.357 324.188 257.086C327.71 259.814 330.239 263.624 331.385 267.93L341.486 305.889L347.307 307.529L347.11 257.796C347.081 250.423 344.724 243.247 340.374 237.293C336.025 231.339 329.906 226.911 322.891 224.641L303.788 218.427L237.068 219.706Z" fill="#E08DAC"/>
<path opacity="0.36" d="M50.8953 12.9538C54.4724 12.9538 57.3722 10.054 57.3722 6.47688C57.3722 2.8998 54.4724 0 50.8953 0C47.3183 0 44.4185 2.8998 44.4185 6.47688C44.4185 10.054 47.3183 12.9538 50.8953 12.9538Z" fill="#91AED4"/>
<path d="M246.382 241.038L248.071 288.41L281.538 280.342L288.638 246.187L246.382 241.038Z" fill="#0A3268"/>
<path opacity="0.36" d="M347.307 23.6939C350.884 23.6939 353.784 20.7941 353.784 17.217C353.784 13.6399 350.884 10.7401 347.307 10.7401C343.73 10.7401 340.83 13.6399 340.83 17.217C340.83 20.7941 343.73 23.6939 347.307 23.6939Z" fill="#91AED4"/>
<path opacity="0.36" d="M6.6888 359.885C10.2659 359.885 13.1657 356.985 13.1657 353.408C13.1657 349.831 10.2659 346.931 6.6888 346.931C3.11171 346.931 0.211914 349.831 0.211914 353.408C0.211914 356.985 3.11171 359.885 6.6888 359.885Z" fill="#91AED4"/>
<path opacity="0.36" d="M447.625 210.818C451.202 210.818 454.101 207.919 454.101 204.342C454.101 200.765 451.202 197.865 447.625 197.865C444.047 197.865 441.148 200.765 441.148 204.342C441.148 207.919 444.047 210.818 447.625 210.818Z" fill="#91AED4"/>
<path d="M203.504 76.3945C203.504 76.3945 235.609 55.3569 272.372 67.9992C309.134 80.6414 317.923 96.973 316.825 135.785C315.726 174.597 303.789 218.443 303.789 218.443L237.069 219.706C237.069 219.706 124.322 127.882 203.504 76.3945Z" fill="#2F80ED"/>
<path opacity="0.08" d="M220.737 76.8372C220.737 76.8372 260.353 75.3942 261.861 120.339H270.322L277.16 162.808C277.16 162.808 289.49 168.711 284.145 177.729C284.145 177.729 277.586 195.389 288.638 218.722L237.069 219.689C237.069 219.689 210.013 196.996 192.55 170.416C175.087 143.836 204.192 108.451 204.192 108.451L220.737 76.8372Z" fill="#0A3268"/>
<path d="M237.068 219.706C237.068 219.706 243.627 251.729 266.091 252.943C288.555 254.156 318.562 258.026 318.562 258.026L331.27 225.33L303.838 218.443L237.068 219.706Z" fill="#0A3268"/>
<path d="M193.141 78.0669C193.141 78.0669 212.818 67.2284 229.412 82.6254C246.006 98.0223 262.452 146.46 189.157 171.629C189.157 171.629 178.941 158.511 177.679 151.953C176.416 145.394 152.886 102.056 193.141 78.0669Z" fill="#FFBA08"/>
<path d="M223.771 110.386C219.721 92.0046 197.027 85.1178 182.778 97.4157C157.313 119.371 116.845 160.807 129.7 193.011C148.065 239.038 248.055 181.287 248.055 181.287L243.71 165.366C243.71 165.366 174.678 192.044 166.643 171.793C160.1 155.544 230.936 143.065 223.771 110.386Z" fill="#2F80ED"/>
<path d="M256.452 120.75L248.505 121.935L284.2 361.344L292.146 360.159L256.452 120.75Z" fill="#FFBA08"/>
<path opacity="0.35" d="M223.771 110.386C219.721 92.0046 197.027 85.1178 182.778 97.4157C157.313 119.371 116.845 160.807 129.7 193.011C148.065 239.038 248.055 181.287 248.055 181.287L243.71 165.366C243.71 165.366 174.678 192.044 166.643 171.793C160.1 155.544 230.936 143.065 223.771 110.386Z" fill="#F8FCFF"/>
<path d="M244.365 167.776C244.365 167.776 251.646 160.889 255.696 163.316C259.746 165.743 262.583 164.431 267.436 165.284C272.29 166.136 274.323 185.222 247.514 179.336L244.365 167.776Z" fill="#0A3268"/>
<path d="M384.726 41.6324L403.14 108.877L425.899 93.3819L411.847 35.7131L419.602 1.85291H384.726V41.6324Z" fill="#FFBA08"/>
<path opacity="0.37" d="M384.726 12.2653H408.223L405.304 36.2871L417.176 87.3151L400.483 99.1867L384.726 41.6326V12.2653Z" fill="#F8FCFF"/>
<path d="M416.274 54.3403C416.274 54.3403 422.833 32.6632 411.125 27.8425C399.417 23.0217 403.418 54.1599 416.274 54.3403Z" fill="#0A3268"/>
<path d="M335.796 288.41H350.947V307.988C350.95 309.493 351.427 310.958 352.31 312.177C353.193 313.395 354.437 314.305 355.866 314.777L362.704 317.056C364.181 317.547 365.467 318.491 366.379 319.753C367.292 321.016 367.784 322.533 367.787 324.09V327.763H342.125C341.074 327.761 340.063 327.361 339.297 326.643C338.53 325.924 338.064 324.942 337.993 323.893L335.796 288.41Z" fill="#0A3268"/>
<path d="M245.137 334.191L262.124 336.437L257.32 359.869L245.137 347.505V334.191Z" fill="#0A3268"/>
<path d="M243.639 94.5171L227.892 96.865L231.095 118.354L246.843 116.006L243.639 94.5171Z" fill="#FFBA08"/>
<path opacity="0.37" d="M243.639 94.5171L227.892 96.865L231.095 118.354L246.843 116.006L243.639 94.5171Z" fill="#F8FCFF"/>
<path d="M326.642 85.3943L313.463 89.2233L319.524 110.087L332.704 106.258L326.642 85.3943Z" fill="#FFBA08"/>
<path opacity="0.37" d="M326.642 85.3943L313.463 89.2233L319.524 110.087L332.704 106.258L326.642 85.3943Z" fill="#F8FCFF"/>
</svg>
