<svg width="521" height="390" viewBox="0 0 521 390" fill="none" xmlns="http://www.w3.org/2000/svg">
<path opacity="0.2" d="M30.2991 91.55C47.0329 91.55 60.5983 78.1873 60.5983 61.7035C60.5983 45.2198 47.0329 31.8571 30.2991 31.8571C13.5654 31.8571 0 45.2198 0 61.7035C0 78.1873 13.5654 91.55 30.2991 91.55Z" fill="#FFBA08"/>
<path opacity="0.2" d="M490.002 59.693C506.736 59.693 520.302 46.3302 520.302 29.8465C520.302 13.3627 506.736 0 490.002 0C473.269 0 459.703 13.3627 459.703 29.8465C459.703 46.3302 473.269 59.693 490.002 59.693Z" fill="#FFBA08"/>
<path opacity="0.3" d="M402.899 73.9608H110.612V274.888H402.899V73.9608Z" fill="#91AED4"/>
<path opacity="0.08" d="M363.243 98.9371C363.243 98.9371 358.344 98.4903 358.465 108.931C358.586 119.371 367.053 126.877 367.053 126.877L364.891 145.807C364.891 145.807 316.69 134.92 310.264 167.387C303.839 199.855 306.938 223.461 285.695 212.515C264.453 201.568 254.776 156.56 254.776 156.56C254.776 156.56 241.093 154.966 245.629 170.53C250.165 186.094 249.787 244.327 283.05 247.038C316.312 249.748 338.235 254.708 334.455 274.933H405.955V202.238L378.74 124.792L375.761 104.537L363.243 98.9371Z" fill="#0A3268"/>
<path opacity="0.08" d="M124.462 165.198C124.462 165.198 134.32 162.22 135.59 176.86C136.86 191.5 148.32 199.408 151.722 214.883C155.124 230.357 178.166 213.84 188.916 236.091C188.916 236.091 206.953 219.47 220.5 229.508C234.047 239.546 206.892 240.47 206.892 240.47L194.948 270.003L230.6 270.465L242.045 231.444L251.736 232.934L242.468 274.903L138.825 273.176L124.416 208.553L116.736 184.962L124.462 165.198Z" fill="#0A3268"/>
<path d="M170.622 280.146L201.511 230.029C201.511 230.029 213.047 230.029 214.967 225.427C216.161 222.553 208.995 221.808 203.446 221.644C201.58 221.596 199.724 221.93 197.996 222.625C196.268 223.32 194.705 224.36 193.407 225.681L155.382 264.061C155.382 264.061 147.928 287.012 170.622 280.146Z" fill="#E08DAC"/>
<path opacity="0.08" d="M170.622 280.146L201.511 230.029C201.511 230.029 213.047 230.029 214.967 225.427C216.161 222.553 208.995 221.808 203.446 221.644C201.58 221.596 199.724 221.93 197.996 222.625C196.268 223.32 194.705 224.36 193.407 225.681L155.382 264.061C155.382 264.061 147.928 287.012 170.622 280.146Z" fill="#0A3268"/>
<path d="M213.136 302.978C213.136 302.978 224.264 313.314 209.84 312.897C195.417 312.48 200.739 301.429 213.136 302.978Z" fill="#2F80ED"/>
<path d="M124.78 185.677C124.78 185.677 146.34 201.553 136.18 207.689C126.019 213.825 118.157 184.187 118.157 184.187L124.78 185.677Z" fill="#0A3268"/>
<path opacity="0.45" d="M245.492 390C366.629 390 464.829 379.571 464.829 366.707C464.829 353.842 366.629 343.413 245.492 343.413C124.356 343.413 26.1562 353.842 26.1562 366.707C26.1562 379.571 124.356 390 245.492 390Z" fill="#91AED4"/>
<path d="M124.673 172.124C125.567 175.875 125.949 179.726 125.807 183.577C125.758 184.032 125.619 184.474 125.396 184.876C125.173 185.277 124.871 185.632 124.509 185.918C124.146 186.205 123.729 186.418 123.283 186.545C122.836 186.673 122.368 186.712 121.907 186.66C120.408 186.591 118.962 186.098 117.742 185.239C116.522 184.381 115.579 183.193 115.027 181.819L112.003 176.13C111.528 174.934 111.442 173.621 111.759 172.374C112.076 171.127 112.78 170.009 113.772 169.175C117.341 165.824 123.902 167.969 124.673 172.124Z" fill="#E08DAC"/>
<path d="M112.638 179.66L114.8 202.238L127.349 200.168L120.742 184.575L112.638 179.66Z" fill="#E08DAC"/>
<path d="M118.157 179.004C118.157 179.004 117.719 176.383 115.738 176.874C113.758 177.366 114.378 181.179 117.16 181.134L118.157 179.004Z" fill="#E08DAC"/>
<path d="M125.476 176.428L127.804 178.781C127.937 178.914 128.034 179.078 128.084 179.258C128.135 179.438 128.139 179.628 128.095 179.809C128.051 179.991 127.961 180.158 127.834 180.296C127.706 180.434 127.545 180.538 127.366 180.598L124.78 181.477L125.476 176.428Z" fill="#E08DAC"/>
<path d="M171.634 284.495C171.634 284.495 214.558 273.771 220.152 292.462C225.746 311.154 160.128 309.307 160.128 309.307L145.19 297.66L171.634 284.495Z" fill="#0A3268"/>
<path d="M127.349 200.168C127.349 200.168 152.342 202.685 169.759 222.285C180.116 233.931 176.2 243.627 171.271 249.584C169.229 252.135 167.862 255.146 167.292 258.346C166.722 261.546 166.967 264.835 168.005 267.918L173.176 283.81C173.176 283.81 145.583 301.339 128.166 299.507C110.748 297.675 55.6988 202.834 127.349 200.168Z" fill="#2F80ED"/>
<path opacity="0.08" d="M93.3915 220.095C91.5374 226.035 91.0215 232.302 91.8796 238.459C93.5427 247.484 102.221 307.445 159.508 291.256L173.191 283.81L158.677 271.716L130.918 243.046L118.822 220.051L93.3915 220.095Z" fill="#0A3268"/>
<path d="M112.956 260.606C100.68 223.953 45.8266 229.955 41.1396 268.276C36.2863 307.848 41.7747 362.447 106.44 369.551C209.252 380.811 225.475 335.058 210.96 310.945C196.445 286.833 124.281 299.507 113.501 262.333C113.319 261.737 113.153 261.172 112.956 260.606Z" fill="#91AED4"/>
<path d="M197.715 281.263C197.715 281.263 212.048 284.688 213.091 275.693L197.427 274.873L197.715 281.263Z" fill="#E08DAC"/>
<path d="M110.612 221.138C110.578 219.21 111.073 217.31 112.043 215.635C113.013 213.961 114.423 212.576 116.126 211.624C117.828 210.673 119.759 210.192 121.715 210.23C123.672 210.269 125.582 210.827 127.244 211.844C132.158 215.046 137.011 221.644 139.929 234.587C145.629 259.906 159.856 270.793 197.715 274.069V281.263C197.715 281.263 112.14 302.709 110.612 221.138Z" fill="#E08DAC"/>
<path d="M123.253 173.777C124.071 173.439 124.785 172.897 125.327 172.204C125.868 171.512 126.216 170.692 126.338 169.827C126.46 168.961 126.352 168.079 126.023 167.268C125.694 166.456 125.156 165.743 124.462 165.198C123.691 164.594 122.842 164.093 121.937 163.709C115.889 161.251 101.647 162.979 102.584 176.368C103.522 189.757 80.8429 220.185 101.33 228.495C121.816 236.806 138.871 225.829 138.871 216.029C138.871 206.23 119.443 203.876 118.157 195.298C117.643 191.798 117.144 188.089 116.736 184.872C116.454 182.577 116.938 180.254 118.113 178.252C119.288 176.251 121.092 174.68 123.253 173.777Z" fill="#0A3268"/>
<path d="M232.943 270.003H188.568V276.288H232.943V270.003Z" fill="#FFBA08"/>
<path d="M227.107 273.161L241.44 226.768L245.553 227.691L232.943 276.289L227.107 273.161Z" fill="#FFBA08"/>
<path opacity="0.45" d="M76.8371 317.648C69.6101 311.139 58.2706 318.273 61.4003 327.418C65.8303 340.33 76.0056 353.02 98.3671 356.773C148.609 365.188 143.725 346.883 140.474 338.901C137.829 332.407 104.551 342.549 76.8371 317.648Z" fill="#F8FCFF"/>
<path opacity="0.39" d="M273.07 153.373H236.33V159.643H273.07V153.373Z" fill="#647AA3"/>
<path opacity="0.18" d="M273.07 167.328H236.33V173.598H273.07V167.328Z" fill="#647AA3"/>
<path opacity="0.39" d="M337.72 153.373H300.98V159.643H337.72V153.373Z" fill="#647AA3"/>
<path opacity="0.18" d="M337.72 167.328H300.98V173.598H337.72V167.328Z" fill="#647AA3"/>
<path d="M357.784 149.337C356.287 147.649 354.444 146.292 352.377 145.357C350.309 144.421 348.064 143.927 345.789 143.907C343.514 143.888 341.26 144.343 339.177 145.242C337.093 146.142 335.226 147.466 333.699 149.128C323.31 160.42 317.456 175.056 317.234 190.294C316.161 225.606 290.836 222.106 264.513 164.304L251.782 171.155C251.782 171.155 286.648 285.344 339.913 220.587C372.344 181.179 366.962 159.926 357.784 149.337Z" fill="#2F80ED"/>
<path opacity="0.08" d="M352.266 144.332C350.159 142.796 347.578 142.025 344.96 142.15C342.342 142.275 339.848 143.288 337.902 145.018C331.487 150.763 326.342 157.748 322.786 165.537C319.23 173.327 317.34 181.754 317.234 190.294C316.161 225.606 290.836 222.106 264.513 164.305L251.782 171.155C251.782 171.155 286.648 285.344 339.913 220.587C378.634 173.538 363.454 152.375 352.266 144.332Z" fill="#0A3268"/>
<path d="M368.065 105.267C368.065 105.267 366.962 113.503 368.065 119.074C368.177 119.613 368.396 120.126 368.71 120.582C369.024 121.037 369.428 121.427 369.896 121.727C370.365 122.028 370.889 122.234 371.439 122.333C371.989 122.433 372.554 122.423 373.1 122.305C374.872 122.035 376.527 121.268 377.868 120.095C379.209 118.923 380.178 117.394 380.66 115.693L383.517 108.544C383.933 107.049 383.866 105.464 383.324 104.009C382.782 102.554 381.792 101.302 380.493 100.427C376.124 96.8525 368.473 100.204 368.065 105.267Z" fill="#E08DAC"/>
<path d="M383.124 109.839L386.254 136.916L370.983 137.556L374.839 117.599L383.124 109.839Z" fill="#E08DAC"/>
<path d="M370.076 105.699C372.677 105.92 375.296 105.835 377.877 105.446C377.074 106.543 376.613 107.848 376.552 109.2C376.49 110.552 376.83 111.892 377.53 113.056C378.189 114.195 379.23 115.071 380.475 115.536C381.719 116.001 383.088 116.024 384.348 115.603L384.696 104.924C384.799 103.398 384.48 101.873 383.771 100.511C383.063 99.1498 381.993 98.0035 380.674 97.1947C379.541 96.4802 378.359 95.8433 377.136 95.2884C374.113 93.9182 369.41 95.7799 366.704 93.5756C366.431 93.359 366.105 93.2156 365.759 93.1592C365.412 93.1027 365.057 93.1352 364.727 93.2535C364.397 93.3718 364.104 93.5719 363.876 93.8344C363.647 94.0969 363.491 94.413 363.423 94.7522C362.788 97.9692 363.151 103.107 367.536 105.073C368.34 105.422 369.199 105.634 370.076 105.699Z" fill="#0A3268"/>
<path d="M376.698 112.773C376.698 112.773 376.909 109.571 379.343 109.929C381.778 110.286 381.49 114.888 378.164 115.186L376.698 112.773Z" fill="#E08DAC"/>
<path d="M367.642 110.495L365.147 113.592C365.006 113.768 364.913 113.976 364.875 114.197C364.837 114.418 364.855 114.644 364.929 114.856C365.003 115.068 365.129 115.258 365.296 115.409C365.464 115.561 365.667 115.668 365.888 115.722L369.093 116.452L367.642 110.495Z" fill="#E08DAC"/>
<path opacity="0.31" d="M373.795 121.933C375.716 121.541 377.48 120.61 378.875 119.252C378.875 119.252 378.421 124.211 372.661 128.888L373.795 121.933Z" fill="#D24E7F"/>
<path d="M355.229 137.303C355.229 137.303 411.971 124.777 432.337 136.007C452.703 147.237 412.773 253.01 412.773 253.01L350.118 251.059C350.118 251.059 295.25 147.981 355.229 137.303Z" fill="#2F80ED"/>
<path d="M367.899 352.275C367.899 352.275 364.981 357.458 359.855 357.071C354.73 356.683 352.628 361.33 356.952 363.311C361.277 365.292 373.931 361.434 373.931 361.434L375.02 352.275H367.899Z" fill="#2F80ED"/>
<path d="M413.801 351.128C413.801 351.128 415.872 356.683 420.983 357.085C426.093 357.487 427.484 362.387 422.903 363.713C418.322 365.038 406.362 359.215 406.362 359.215L406.71 349.996L413.801 351.128Z" fill="#2F80ED"/>
<path d="M261.837 165.749C261.837 165.749 262.623 152.986 254.277 149.783C245.931 146.581 254.277 169.8 254.277 169.8L261.837 165.749Z" fill="#E08DAC"/>
<path opacity="0.08" d="M404.488 145.747C404.488 145.747 386.571 157.2 395.688 183.323C404.805 209.446 406.272 228.197 384.772 221.644C363.272 215.091 364.814 185.9 364.814 185.9L342.861 189.176L340.744 230.699L350.073 250.999L404.503 247.633L426.683 242.048L434.938 214.748L419.819 168.34L404.488 145.747Z" fill="#0A3268"/>
<path d="M350.073 250.999L366.099 352.275H376.577C376.577 352.275 366.87 276.11 383.819 266.92C400.768 257.731 404.094 352.275 404.094 352.275L415.207 351.396L415.086 246.978L350.073 250.999Z" fill="#0A3268"/>
<path d="M415.555 132.626C415.555 132.626 450.858 126.758 450.858 181.477C450.858 236.195 442.361 284.897 360.898 236.091L367.097 226.768C367.097 226.768 410.943 245.802 420.302 229.091C429.661 212.381 383.683 141.905 415.555 132.626Z" fill="#2F80ED"/>
<path opacity="0.46" d="M415.555 132.626C415.555 132.626 450.858 126.758 450.858 181.477C450.858 236.195 442.361 284.897 360.898 236.091L367.097 226.768C367.097 226.768 410.943 245.802 420.302 229.091C429.661 212.381 383.683 141.905 415.555 132.626Z" fill="#F8FCFF"/>
<path d="M273.07 108.931H236.33V140.758H273.07V108.931Z" fill="#FFBA08"/>
<path opacity="0.46" d="M259.493 100.963H250.618V118.73H259.493V100.963Z" fill="#F8FCFF"/>
<path d="M206.938 108.931H170.198V140.758H206.938V108.931Z" fill="#647AA3"/>
<path opacity="0.46" d="M193.346 100.963H184.471V118.73H193.346V100.963Z" fill="#F8FCFF"/>
<path d="M337.72 108.931H300.98V140.758H337.72V108.931Z" fill="#647AA3"/>
<path d="M351.025 181.302L321.143 188.707L332.396 232.774L362.279 225.369L351.025 181.302Z" fill="#FFBA08"/>
<path opacity="0.46" d="M324.142 100.963H315.267V118.73H324.142V100.963Z" fill="#F8FCFF"/>
<path d="M367.051 226.768C367.051 226.768 352.34 215.3 350.027 224.072C347.714 232.844 362.969 232.904 362.969 232.904L367.051 226.768Z" fill="#E08DAC"/>
<path opacity="0.39" d="M206.938 153.373H170.198V159.643H206.938V153.373Z" fill="#647AA3"/>
<path opacity="0.18" d="M206.938 167.328H170.198V173.598H206.938V167.328Z" fill="#647AA3"/>
<path d="M508.765 33.2868C509.539 30.3195 509.563 27.2107 508.835 24.2323C508.106 21.2539 506.649 18.4966 504.589 16.2016C502.529 13.9065 499.929 12.1437 497.017 11.0671C494.106 9.99062 490.971 9.63326 487.886 10.0263C484.802 10.4193 481.862 11.5508 479.325 13.3218C476.787 15.0927 474.728 17.4492 473.329 20.1851C471.93 22.921 471.232 25.953 471.297 29.0158C471.363 32.0787 472.189 35.0792 473.704 37.7548C475.609 41.163 476.108 45.1639 475.095 48.9249L474.943 49.5504L493.192 54.1525L493.313 53.6908C494.342 49.8741 496.835 46.6004 500.268 44.5611C504.476 42.0289 507.522 37.9871 508.765 33.2868Z" fill="#FFBA08"/>
<path d="M479.298 50.7271C479.145 50.6917 479.01 50.6028 478.918 50.4768C478.826 50.3508 478.784 50.1963 478.799 50.042L480.916 26.0784C480.924 25.9922 480.949 25.9084 480.989 25.8317C481.03 25.755 481.086 25.687 481.153 25.6316C481.22 25.5762 481.298 25.5346 481.382 25.509C481.466 25.4834 481.554 25.4745 481.642 25.4827C481.728 25.4881 481.812 25.5109 481.889 25.5495C481.966 25.5882 482.035 25.6419 482.09 25.7075C482.145 25.773 482.186 25.849 482.21 25.9307C482.235 26.0124 482.242 26.0981 482.231 26.1827L480.115 50.1462C480.109 50.2318 480.086 50.3153 480.047 50.3919C480.008 50.4685 479.954 50.5366 479.887 50.5922C479.821 50.6477 479.744 50.6896 479.661 50.7153C479.578 50.7411 479.491 50.7501 479.404 50.742L479.298 50.7271Z" fill="#F8FCFF"/>
<path d="M488.914 53.1548H488.808C488.648 53.0833 488.523 52.9523 488.461 52.7904C488.399 52.6286 488.404 52.449 488.475 52.291L498.303 30.2785C498.336 30.1978 498.385 30.1245 498.448 30.0631C498.51 30.0018 498.585 29.9536 498.667 29.9216C498.749 29.8895 498.837 29.8743 498.925 29.8767C499.013 29.8792 499.1 29.8993 499.18 29.9359C499.34 30.0074 499.465 30.1384 499.527 30.3003C499.59 30.4621 499.584 30.6417 499.513 30.7997L489.685 52.8122C489.615 52.9467 489.5 53.0537 489.36 53.1159C489.22 53.1781 489.063 53.1918 488.914 53.1548Z" fill="#F8FCFF"/>
<path d="M495.451 51.7605L474.55 46.4895L470.328 62.7356L491.229 68.0066L495.451 51.7605Z" fill="#0A3268"/>
<path d="M491.03 33.5993C490.563 33.434 490.142 33.1634 489.801 32.809C489.46 32.4547 489.207 32.0266 489.064 31.5589C488.868 31.0972 488.611 30.844 488.338 30.7993C487.703 30.6951 486.736 31.5142 486.373 31.9163C486.254 32.0358 486.093 32.1058 485.923 32.1119C485.753 32.118 485.587 32.0598 485.459 31.9493C485.332 31.8387 485.252 31.6842 485.236 31.5174C485.22 31.3506 485.27 31.1843 485.375 31.0525C485.541 30.8738 487.023 29.2653 488.55 29.5632C488.945 29.6442 489.312 29.8237 489.617 30.0845C489.921 30.3452 490.152 30.6785 490.289 31.0525C490.531 31.5887 490.909 32.2589 491.453 32.3334C491.997 32.4078 492.783 31.7525 492.965 31.5142C493.016 31.4361 493.083 31.3696 493.162 31.319C493.242 31.2685 493.331 31.2351 493.424 31.2211C493.517 31.2071 493.612 31.2128 493.703 31.2378C493.794 31.2628 493.879 31.3065 493.951 31.3661C494.023 31.4257 494.082 31.4998 494.123 31.5834C494.164 31.667 494.187 31.7583 494.189 31.8512C494.192 31.9441 494.174 32.0364 494.138 32.1221C494.101 32.2078 494.047 32.2849 493.978 32.3483C493.652 32.7576 493.233 33.0864 492.756 33.3087C492.278 33.531 491.754 33.6407 491.226 33.6291L491.03 33.5993Z" fill="#F8FCFF"/>
<path opacity="0.21" d="M504.067 23.8766C505.633 21.8881 504.812 18.6778 502.232 16.7061C499.653 14.7345 496.292 14.7482 494.726 16.7367C493.159 18.7253 493.98 21.9356 496.56 23.9072C499.139 25.8789 502.5 25.8652 504.067 23.8766Z" fill="#F8FCFF"/>
<path d="M49.1987 59.0229C48.9834 55.9617 48.0094 52.9992 46.3619 50.395C44.7144 47.7907 42.4437 45.6242 39.7488 44.0851C37.0538 42.5461 34.0169 41.6815 30.904 41.5671C27.7911 41.4527 24.6972 42.0921 21.8933 43.4291C19.0895 44.7661 16.6613 46.76 14.8214 49.2361C12.9816 51.7123 11.7862 54.595 11.34 57.6319C10.8938 60.6688 11.2104 63.7672 12.2621 66.6555C13.3139 69.5439 15.0686 72.1341 17.3725 74.1993C20.2978 76.8315 22.0751 80.477 22.3317 84.3716V85.012L41.125 83.6865V83.2248C40.8692 79.2817 42.1876 75.3962 44.799 72.3972C47.9752 68.6722 49.5533 63.875 49.1987 59.0229Z" fill="#FFBA08"/>
<path d="M26.8669 84.7288C26.7121 84.7431 26.5573 84.701 26.4319 84.6104C26.3065 84.5198 26.2192 84.3871 26.1865 84.2373L20.4714 60.8248C20.4512 60.7426 20.4477 60.6573 20.4611 60.5738C20.4745 60.4903 20.5046 60.4103 20.5496 60.3383C20.5945 60.2663 20.6535 60.2038 20.7232 60.1543C20.7928 60.1049 20.8717 60.0696 20.9552 60.0503C21.1256 60.0098 21.3053 60.0371 21.4554 60.1263C21.6054 60.2155 21.7137 60.3595 21.7566 60.5269L27.4112 83.9245C27.4314 84.0086 27.4344 84.0958 27.4202 84.1811C27.406 84.2664 27.3749 84.3481 27.3285 84.4215C27.2821 84.4948 27.2215 84.5584 27.15 84.6086C27.0786 84.6588 26.9978 84.6946 26.9123 84.7139L26.8669 84.7288Z" fill="#F8FCFF"/>
<path d="M36.7245 84.0437H36.6035C36.4295 84.0249 36.2701 83.9393 36.1597 83.8055C36.0493 83.6717 35.9969 83.5004 36.0139 83.3288L38.2969 59.3801C38.3044 59.2945 38.3293 59.2112 38.3701 59.1353C38.411 59.0593 38.4669 58.9923 38.5347 58.9381C38.6024 58.8839 38.6805 58.8436 38.7643 58.8198C38.8481 58.796 38.936 58.789 39.0226 58.7993C39.1966 58.8181 39.3561 58.9037 39.4665 59.0375C39.5768 59.1713 39.6292 59.3426 39.6123 59.5142L37.3292 83.4628C37.3152 83.6147 37.2465 83.7567 37.1357 83.8632C37.0248 83.9697 36.879 84.0337 36.7245 84.0437Z" fill="#F8FCFF"/>
<path d="M42.4599 80.7196L20.9375 82.2058L22.128 98.9348L43.6505 97.4485L42.4599 80.7196Z" fill="#0A3268"/>
<path d="M32.4779 64.8314C31.9849 64.8199 31.5015 64.6955 31.0659 64.468C30.6302 64.2405 30.2544 63.9162 29.968 63.5208C29.6203 63.1485 29.3028 62.9698 29.0306 63.0144C28.3956 63.1187 27.7304 64.191 27.5187 64.6974C27.4857 64.7762 27.4371 64.8478 27.3756 64.9078C27.3142 64.9679 27.2412 65.0153 27.1609 65.0472C27.0807 65.0791 26.9947 65.0949 26.9082 65.0936C26.8216 65.0924 26.7362 65.0741 26.6569 65.0399C26.5756 65.0089 26.5014 64.962 26.4388 64.9021C26.3762 64.8422 26.3265 64.7705 26.2926 64.6913C26.2588 64.6121 26.2415 64.527 26.2417 64.441C26.2419 64.3551 26.2597 64.27 26.294 64.191C26.3999 63.9676 27.2919 61.9719 28.819 61.7336C29.2259 61.6833 29.639 61.7426 30.0144 61.9052C30.3898 62.0678 30.7134 62.3276 30.9508 62.657C31.359 63.1038 31.9336 63.6102 32.4627 63.5208C32.9919 63.4314 33.5362 62.5527 33.6572 62.2549C33.6889 62.1747 33.7364 62.1014 33.7969 62.0393C33.8574 61.9772 33.9298 61.9275 34.0098 61.8929C34.0898 61.8583 34.176 61.8396 34.2633 61.8378C34.3507 61.836 34.4376 61.8512 34.519 61.8825C34.6004 61.9138 34.6747 61.9606 34.7378 62.0202C34.8008 62.0798 34.8513 62.151 34.8864 62.2299C34.9215 62.3087 34.9405 62.3936 34.9423 62.4796C34.9441 62.5657 34.9287 62.6513 34.8969 62.7315C34.8969 62.9102 34.141 64.5485 32.6895 64.8016L32.4779 64.8314Z" fill="#F8FCFF"/>
<path opacity="0.21" d="M41.6973 51.5351C42.5473 49.1615 40.7403 46.37 37.6614 45.3001C34.5824 44.2302 31.3973 45.2871 30.5473 47.6608C29.6973 50.0344 31.5043 52.8259 34.5833 53.8958C37.6623 54.9656 40.8473 53.9087 41.6973 51.5351Z" fill="#F8FCFF"/>
<path opacity="0.32" d="M412.999 119.252C412.999 119.252 482.866 156.486 478.798 70.595" stroke="#647AA3" stroke-width="2" stroke-linecap="round" stroke-linejoin="round" stroke-dasharray="2 10"/>
<path opacity="0.32" d="M31.4029 109.005C31.4029 109.005 1.40616 191.947 85.3185 197.204" stroke="#647AA3" stroke-width="2" stroke-linecap="round" stroke-linejoin="round" stroke-dasharray="2 10"/>
</svg>
