<svg xmlns="http://www.w3.org/2000/svg" viewBox="0 0 45 45"><title>TP</title><path d="M22.6,0a22.5,22.5,0,0,0-.89,45A22.68,22.68,0,0,0,45,23.13C45.34,10.31,34.66-.24,22.6,0ZM39.52,34c-.42.62-.66.69-1.21.14a21.43,21.43,0,0,0-6.37-4.52.59.59,0,0,0-.76.11,11.76,11.76,0,0,1-5.68,3.1,11.81,11.81,0,0,1-4.89.21,14.37,14.37,0,0,1-5.93-2.59,2.12,2.12,0,0,1-.27-.17c-1.07-.86-1-.83-2.28-.17a23.6,23.6,0,0,0-5.61,4.17c-.38.38-.59.27-.83-.11a19.87,19.87,0,0,1-3.23-7.51A14.22,14.22,0,0,1,2,22.41,19.7,19.7,0,0,1,8.93,7,19.92,19.92,0,0,1,20.54,2,19.85,19.85,0,0,1,34.66,5.93a20,20,0,0,1,8,12.76A20.55,20.55,0,0,1,39.52,34Z"/><circle cx="22.37" cy="18.54" r="9.06"/></svg>