<svg xmlns="http://www.w3.org/2000/svg" viewBox="0 0 40 40"><title>TP</title><path d="M33.05,5h-3.7V4.4a1.91,1.91,0,0,0-1.93-1.9H12.58a1.91,1.91,0,0,0-1.93,1.9V5H7C4.57,5,2.61,6.56,2.5,8.57V34.11c0,2,2.12,3.39,4.45,3.39h26.1c2.33,0,4.45-1.43,4.45-3.39V8.57C37.39,6.56,35.43,5,33.05,5ZM12.35,4.4a.22.22,0,0,1,.23-.22H27.42a.22.22,0,0,1,.23.22V7.22a.23.23,0,0,1-.23.23H12.58a.23.23,0,0,1-.23-.23Zm20.7,31.32H7c-1.16,0-2.33-.63-2.33-1.61V8.57A2.26,2.26,0,0,1,7,6.74h3.7v.48a1.92,1.92,0,0,0,1.93,1.91H27.42a1.92,1.92,0,0,0,1.93-1.91V6.74h3.7a2.26,2.26,0,0,1,2.33,1.83V34.11h0C35.38,35.09,34.21,35.72,33.05,35.72Z"/><path d="M15.92,20a1.19,1.19,0,0,0-1.49,0L11,22.69,9.61,21.41a1.2,1.2,0,0,0-1.49-.05.87.87,0,0,0,0,1.33L10.3,24.6a1,1,0,0,0,.74.27,1.14,1.14,0,0,0,.74-.27l4.14-3.37A.79.79,0,0,0,16,20Z"/><path d="M15.92,12.66a1.19,1.19,0,0,0-1.49,0L11,15.4,9.61,14.12a1.19,1.19,0,0,0-1.49,0,.86.86,0,0,0,0,1.32l2.18,1.91a1,1,0,0,0,.74.27,1.14,1.14,0,0,0,.74-.27l4.14-3.37A.78.78,0,0,0,16,12.72Z"/><path d="M15.92,27.24a1.19,1.19,0,0,0-1.49,0L11,30,9.61,28.7a1.2,1.2,0,0,0-1.49-.05.86.86,0,0,0,0,1.32l2.18,1.92a1,1,0,0,0,.74.27,1.14,1.14,0,0,0,.74-.27l4.14-3.37A.79.79,0,0,0,16,27.29Z"/></svg>