<svg xmlns="http://www.w3.org/2000/svg" viewBox="0 0 40 40">
   <title>Бронь</title>
   <path d="M29.84,14.59s0,0,0-.06a2,2,0,0,0-.44-.6L23.53,8.56A2.07,2.07,0,0,0,22.11,8H12A2.1,2.1,0,0,0,10,10.1V29.9A2.1,2.1,0,0,0,12,32H28a2.1,2.1,0,0,0,2.09-2.09V15.47A2.07,2.07,0,0,0,29.84,14.59Zm-1.13-.24h-5a.6.6,0,0,1-.6-.6V9.24ZM29.3,29.9A1.34,1.34,0,0,1,28,31.24H12A1.34,1.34,0,0,1,10.7,29.9V10.1A1.34,1.34,0,0,1,12,8.76H22.11a1.35,1.35,0,0,1,.29.05v4.94a1.36,1.36,0,0,0,1.35,1.35h5.49a1.51,1.51,0,0,1,.06.37Z"/>
   <path d="M19.62,16.82h-6a.38.38,0,0,1,0-.75h6a.38.38,0,1,1,0,.75Z"/>
   <path d="M25.62,24.68h-6a.38.38,0,0,1,0-.75h6a.38.38,0,1,1,0,.75Z"/>
   <path d="M25.62,22.06h-12a.38.38,0,0,1,0-.75h12a.38.38,0,1,1,0,.75Z"/>
   <path d="M25.62,19.44h-12a.38.38,0,0,1,0-.75h12a.38.38,0,1,1,0,.75Z"/>
</svg>