<svg xmlns="http://www.w3.org/2000/svg" viewBox="0 0 40 40">
   <title>Выйти</title>
   <path d="M14.9602 25H5.99002C5.43984 25 4.99336 24.552 4.99336 24.0001V6.00003C4.99336 5.44802 5.43989 5.00005 5.99002 5.00005H14.9602C15.5113 5.00005 15.9568 4.55307 15.9568 4.00007C15.9568 3.44708 15.5113 3 14.9602 3H5.99002C4.34152 3 3 4.34603 3 6.00003V24C3 25.654 4.34152 27 5.99002 27H14.9602C15.5113 27 15.9568 26.553 15.9568 26C15.9568 25.447 15.5113 25 14.9602 25Z"/>
   <path d="M26.703 14.288L20.6431 8.28799C20.2524 7.89998 19.6206 7.90501 19.2338 8.298C18.8471 8.691 18.8511 9.32399 19.2438 9.712L23.5744 14H11.97C11.4189 14 10.9734 14.447 10.9734 15C10.9734 15.5529 11.4189 16 11.97 16H23.5744L19.2438 20.288C18.8512 20.676 18.8482 21.309 19.2338 21.702C19.4292 21.9 19.6863 21.9999 19.9435 21.9999C20.1967 21.9999 20.4498 21.904 20.6431 21.7119L26.703 15.7119C26.8923 15.5239 27 15.2679 27 14.9999C27 14.732 26.8933 14.477 26.703 14.288Z"/>
</svg>
