<svg xmlns="http://www.w3.org/2000/svg" viewBox="0 0 40 40">
	<title>Выйти</title>
	<path d="M20,30h-9c-0.6,0-1-0.4-1-1V11c0-0.6,0.4-1,1-1h9c0.6,0,1-0.4,1-1c0-0.6-0.4-1-1-1h-9c-1.6,0-3,1.3-3,3v18c0,1.7,1.3,3,3,3
		h9c0.6,0,1-0.4,1-1S20.5,30,20,30z"/>
	<path d="M31.7,19.3l-6.1-6c-0.4-0.4-1-0.4-1.4,0c-0.4,0.4-0.4,1,0,1.4l4.3,4.3H17c-0.6,0-1,0.4-1,1c0,0.6,0.4,1,1,1h11.6l-4.3,4.3
		c-0.4,0.4-0.4,1,0,1.4c0.2,0.2,0.5,0.3,0.7,0.3c0.3,0,0.5-0.1,0.7-0.3l6.1-6c0.2-0.2,0.3-0.4,0.3-0.7C32,19.7,31.9,19.5,31.7,19.3z
		"/>
</svg>
