<svg xmlns="http://www.w3.org/2000/svg" viewBox="0 0 40 40">
   <title>Проживание</title>
   <path d="M36.56,17.72h0L22.28,3.44a3.24,3.24,0,0,0-4.56,0L3.45,17.71v0a3.22,3.22,0,0,0,2.14,5.49h.67V33.73A3.77,3.77,0,0,0,10,37.5h5.59a1,1,0,0,0,1-1V28.24a1.72,1.72,0,0,1,1.72-1.72h3.3a1.72,1.72,0,0,1,1.72,1.72v8.23a1,1,0,0,0,1,1H30a3.77,3.77,0,0,0,3.77-3.77V23.22h.53a3.2,3.2,0,0,0,2.28-.94A3.24,3.24,0,0,0,36.56,17.72Zm-1.45,3.11a1.17,1.17,0,0,1-.83.34H32.73a1,1,0,0,0-1,1V33.73A1.72,1.72,0,0,1,30,35.45H25.42V28.24a3.77,3.77,0,0,0-3.77-3.77h-3.3a3.77,3.77,0,0,0-3.77,3.77v7.21H10A1.72,1.72,0,0,1,8.3,33.73V22.2a1,1,0,0,0-1-1H5.7a1.21,1.21,0,0,1-.81-.34,1.19,1.19,0,0,1,0-1.66h0L19.17,4.89a1.18,1.18,0,0,1,1.66,0L35.1,19.17h0A1.19,1.19,0,0,1,35.11,20.83Z"/>
</svg>