<svg width="170" height="26" viewBox="0 0 170 26" fill="none" xmlns="http://www.w3.org/2000/svg">
<path d="M26.72 9.2H22.08V7H33.96V9.2H29.32V21H26.72V9.2ZM37.7973 11.88C38.5173 10.76 39.784 10.2 41.5973 10.2V12.58C41.384 12.54 41.1907 12.52 41.0173 12.52C40.044 12.52 39.284 12.8067 38.7373 13.38C38.1907 13.94 37.9173 14.7533 37.9173 15.82V21H35.4173V10.32H37.7973V11.88ZM47.7395 10.2C49.3129 10.2 50.5129 10.58 51.3395 11.34C52.1795 12.0867 52.5995 13.22 52.5995 14.74V21H50.2395V19.7C49.9329 20.1667 49.4929 20.5267 48.9195 20.78C48.3595 21.02 47.6795 21.14 46.8795 21.14C46.0795 21.14 45.3795 21.0067 44.7795 20.74C44.1795 20.46 43.7129 20.08 43.3795 19.6C43.0595 19.1067 42.8995 18.5533 42.8995 17.94C42.8995 16.98 43.2529 16.2133 43.9595 15.64C44.6795 15.0533 45.8062 14.76 47.3395 14.76H50.0995V14.6C50.0995 13.8533 49.8729 13.28 49.4195 12.88C48.9795 12.48 48.3195 12.28 47.4395 12.28C46.8395 12.28 46.2462 12.3733 45.6595 12.56C45.0862 12.7467 44.5995 13.0067 44.1995 13.34L43.2195 11.52C43.7795 11.0933 44.4529 10.7667 45.2395 10.54C46.0262 10.3133 46.8595 10.2 47.7395 10.2ZM47.3995 19.32C48.0262 19.32 48.5795 19.18 49.0595 18.9C49.5529 18.6067 49.8995 18.1933 50.0995 17.66V16.42H47.5195C46.0795 16.42 45.3595 16.8933 45.3595 17.84C45.3595 18.2933 45.5395 18.6533 45.8995 18.92C46.2595 19.1867 46.7595 19.32 47.3995 19.32ZM65.6127 10.32L61.0327 21H58.4527L53.8727 10.32H56.4727L59.7927 18.24L63.2127 10.32H65.6127ZM76.9222 15.72C76.9222 15.8933 76.9089 16.14 76.8822 16.46H68.5022C68.6489 17.2467 69.0289 17.8733 69.6422 18.34C70.2689 18.7933 71.0422 19.02 71.9622 19.02C73.1355 19.02 74.1022 18.6333 74.8622 17.86L76.2022 19.4C75.7222 19.9733 75.1155 20.4067 74.3822 20.7C73.6489 20.9933 72.8222 21.14 71.9022 21.14C70.7289 21.14 69.6955 20.9067 68.8022 20.44C67.9089 19.9733 67.2155 19.3267 66.7222 18.5C66.2422 17.66 66.0022 16.7133 66.0022 15.66C66.0022 14.62 66.2355 13.6867 66.7022 12.86C67.1822 12.02 67.8422 11.3667 68.6822 10.9C69.5222 10.4333 70.4689 10.2 71.5222 10.2C72.5622 10.2 73.4889 10.4333 74.3022 10.9C75.1289 11.3533 75.7689 12 76.2222 12.84C76.6889 13.6667 76.9222 14.6267 76.9222 15.72ZM71.5222 12.2C70.7222 12.2 70.0422 12.44 69.4822 12.92C68.9355 13.3867 68.6022 14.0133 68.4822 14.8H74.5422C74.4355 14.0267 74.1089 13.4 73.5622 12.92C73.0155 12.44 72.3355 12.2 71.5222 12.2ZM79.3236 6.16H81.8236V21H79.3236V6.16ZM91.1048 7C92.3182 7 93.3715 7.2 94.2648 7.6C95.1715 8 95.8648 8.57333 96.3448 9.32C96.8248 10.0667 97.0648 10.9533 97.0648 11.98C97.0648 12.9933 96.8248 13.88 96.3448 14.64C95.8648 15.3867 95.1715 15.96 94.2648 16.36C93.3715 16.76 92.3182 16.96 91.1048 16.96H87.9448V21H85.3448V7H91.1048ZM90.9848 14.76C92.1182 14.76 92.9782 14.52 93.5648 14.04C94.1515 13.56 94.4448 12.8733 94.4448 11.98C94.4448 11.0867 94.1515 10.4 93.5648 9.92C92.9782 9.44 92.1182 9.2 90.9848 9.2H87.9448V14.76H90.9848ZM99.6166 6.16H102.117V21H99.6166V6.16ZM109.478 10.2C111.051 10.2 112.251 10.58 113.078 11.34C113.918 12.0867 114.338 13.22 114.338 14.74V21H111.978V19.7C111.671 20.1667 111.231 20.5267 110.658 20.78C110.098 21.02 109.418 21.14 108.618 21.14C107.818 21.14 107.118 21.0067 106.518 20.74C105.918 20.46 105.451 20.08 105.118 19.6C104.798 19.1067 104.638 18.5533 104.638 17.94C104.638 16.98 104.991 16.2133 105.698 15.64C106.418 15.0533 107.544 14.76 109.078 14.76H111.838V14.6C111.838 13.8533 111.611 13.28 111.158 12.88C110.718 12.48 110.058 12.28 109.178 12.28C108.578 12.28 107.984 12.3733 107.398 12.56C106.824 12.7467 106.338 13.0067 105.938 13.34L104.958 11.52C105.518 11.0933 106.191 10.7667 106.978 10.54C107.764 10.3133 108.598 10.2 109.478 10.2ZM109.138 19.32C109.764 19.32 110.318 19.18 110.798 18.9C111.291 18.6067 111.638 18.1933 111.838 17.66V16.42H109.258C107.818 16.42 107.098 16.8933 107.098 17.84C107.098 18.2933 107.278 18.6533 107.638 18.92C107.998 19.1867 108.498 19.32 109.138 19.32ZM123.606 10.2C124.953 10.2 126.033 10.5933 126.846 11.38C127.66 12.1667 128.066 13.3333 128.066 14.88V21H125.566V15.2C125.566 14.2667 125.346 13.5667 124.906 13.1C124.466 12.62 123.84 12.38 123.026 12.38C122.106 12.38 121.38 12.66 120.846 13.22C120.313 13.7667 120.046 14.56 120.046 15.6V21H117.546V10.32H119.926V11.7C120.34 11.2067 120.86 10.8333 121.486 10.58C122.113 10.3267 122.82 10.2 123.606 10.2ZM137.298 10.2C138.644 10.2 139.724 10.5933 140.538 11.38C141.351 12.1667 141.758 13.3333 141.758 14.88V21H139.258V15.2C139.258 14.2667 139.038 13.5667 138.598 13.1C138.158 12.62 137.531 12.38 136.718 12.38C135.798 12.38 135.071 12.66 134.538 13.22C134.004 13.7667 133.738 14.56 133.738 15.6V21H131.238V10.32H133.618V11.7C134.031 11.2067 134.551 10.8333 135.178 10.58C135.804 10.3267 136.511 10.2 137.298 10.2ZM155.067 15.72C155.067 15.8933 155.053 16.14 155.027 16.46H146.647C146.793 17.2467 147.173 17.8733 147.787 18.34C148.413 18.7933 149.187 19.02 150.107 19.02C151.28 19.02 152.247 18.6333 153.007 17.86L154.347 19.4C153.867 19.9733 153.26 20.4067 152.527 20.7C151.793 20.9933 150.967 21.14 150.047 21.14C148.873 21.14 147.84 20.9067 146.947 20.44C146.053 19.9733 145.36 19.3267 144.867 18.5C144.387 17.66 144.147 16.7133 144.147 15.66C144.147 14.62 144.38 13.6867 144.847 12.86C145.327 12.02 145.987 11.3667 146.827 10.9C147.667 10.4333 148.613 10.2 149.667 10.2C150.707 10.2 151.633 10.4333 152.447 10.9C153.273 11.3533 153.913 12 154.367 12.84C154.833 13.6667 155.067 14.6267 155.067 15.72ZM149.667 12.2C148.867 12.2 148.187 12.44 147.627 12.92C147.08 13.3867 146.747 14.0133 146.627 14.8H152.687C152.58 14.0267 152.253 13.4 151.707 12.92C151.16 12.44 150.48 12.2 149.667 12.2ZM159.848 11.88C160.568 10.76 161.835 10.2 163.648 10.2V12.58C163.435 12.54 163.241 12.52 163.068 12.52C162.095 12.52 161.335 12.8067 160.788 13.38C160.241 13.94 159.968 14.7533 159.968 15.82V21H157.468V10.32H159.848V11.88Z" fill="#91AED4"/>
<path d="M17.2271 6.49276L3.00006 11.7343L10.4492 13.2707L11.9856 20.7198L17.2271 6.49276Z" stroke="#91AED4" stroke-width="2" stroke-linecap="round" stroke-linejoin="round"/>
</svg>
