<svg width="160" height="24" viewBox="0 0 160 24" fill="none" xmlns="http://www.w3.org/2000/svg">
<path d="M26.72 7.2H22.08V5H33.96V7.2H29.32V19H26.72V7.2ZM37.7973 9.88C38.5173 8.76 39.784 8.2 41.5973 8.2V10.58C41.384 10.54 41.1907 10.52 41.0173 10.52C40.044 10.52 39.284 10.8067 38.7373 11.38C38.1907 11.94 37.9173 12.7533 37.9173 13.82V19H35.4173V8.32H37.7973V9.88ZM47.7395 8.2C49.3129 8.2 50.5129 8.58 51.3395 9.34C52.1795 10.0867 52.5995 11.22 52.5995 12.74V19H50.2395V17.7C49.9329 18.1667 49.4929 18.5267 48.9195 18.78C48.3595 19.02 47.6795 19.14 46.8795 19.14C46.0795 19.14 45.3795 19.0067 44.7795 18.74C44.1795 18.46 43.7129 18.08 43.3795 17.6C43.0595 17.1067 42.8995 16.5533 42.8995 15.94C42.8995 14.98 43.2529 14.2133 43.9595 13.64C44.6795 13.0533 45.8062 12.76 47.3395 12.76H50.0995V12.6C50.0995 11.8533 49.8729 11.28 49.4195 10.88C48.9795 10.48 48.3195 10.28 47.4395 10.28C46.8395 10.28 46.2462 10.3733 45.6595 10.56C45.0862 10.7467 44.5995 11.0067 44.1995 11.34L43.2195 9.52C43.7795 9.09333 44.4529 8.76667 45.2395 8.54C46.0262 8.31333 46.8595 8.2 47.7395 8.2ZM47.3995 17.32C48.0262 17.32 48.5795 17.18 49.0595 16.9C49.5529 16.6067 49.8995 16.1933 50.0995 15.66V14.42H47.5195C46.0795 14.42 45.3595 14.8933 45.3595 15.84C45.3595 16.2933 45.5395 16.6533 45.8995 16.92C46.2595 17.1867 46.7595 17.32 47.3995 17.32ZM65.6127 8.32L61.0327 19H58.4527L53.8727 8.32H56.4727L59.7927 16.24L63.2127 8.32H65.6127ZM76.9222 13.72C76.9222 13.8933 76.9089 14.14 76.8822 14.46H68.5022C68.6489 15.2467 69.0289 15.8733 69.6422 16.34C70.2689 16.7933 71.0422 17.02 71.9622 17.02C73.1355 17.02 74.1022 16.6333 74.8622 15.86L76.2022 17.4C75.7222 17.9733 75.1155 18.4067 74.3822 18.7C73.6489 18.9933 72.8222 19.14 71.9022 19.14C70.7289 19.14 69.6955 18.9067 68.8022 18.44C67.9089 17.9733 67.2155 17.3267 66.7222 16.5C66.2422 15.66 66.0022 14.7133 66.0022 13.66C66.0022 12.62 66.2355 11.6867 66.7022 10.86C67.1822 10.02 67.8422 9.36667 68.6822 8.9C69.5222 8.43333 70.4689 8.2 71.5222 8.2C72.5622 8.2 73.4889 8.43333 74.3022 8.9C75.1289 9.35333 75.7689 10 76.2222 10.84C76.6889 11.6667 76.9222 12.6267 76.9222 13.72ZM71.5222 10.2C70.7222 10.2 70.0422 10.44 69.4822 10.92C68.9355 11.3867 68.6022 12.0133 68.4822 12.8H74.5422C74.4355 12.0267 74.1089 11.4 73.5622 10.92C73.0155 10.44 72.3355 10.2 71.5222 10.2ZM79.3236 4.16H81.8236V19H79.3236V4.16ZM90.1648 13.14L87.9448 15.42V19H85.3448V5H87.9448V12.18L94.8648 5H97.7848L91.9048 11.26L98.1448 19H95.1048L90.1648 13.14ZM109.246 13.72C109.246 13.8933 109.233 14.14 109.206 14.46H100.826C100.973 15.2467 101.353 15.8733 101.966 16.34C102.593 16.7933 103.366 17.02 104.286 17.02C105.46 17.02 106.426 16.6333 107.186 15.86L108.526 17.4C108.046 17.9733 107.44 18.4067 106.706 18.7C105.973 18.9933 105.146 19.14 104.226 19.14C103.053 19.14 102.02 18.9067 101.126 18.44C100.233 17.9733 99.5397 17.3267 99.0464 16.5C98.5664 15.66 98.3264 14.7133 98.3264 13.66C98.3264 12.62 98.5597 11.6867 99.0264 10.86C99.5064 10.02 100.166 9.36667 101.006 8.9C101.846 8.43333 102.793 8.2 103.846 8.2C104.886 8.2 105.813 8.43333 106.626 8.9C107.453 9.35333 108.093 10 108.546 10.84C109.013 11.6667 109.246 12.6267 109.246 13.72ZM103.846 10.2C103.046 10.2 102.366 10.44 101.806 10.92C101.26 11.3867 100.926 12.0133 100.806 12.8H106.866C106.76 12.0267 106.433 11.4 105.886 10.92C105.34 10.44 104.66 10.2 103.846 10.2ZM121.688 13.72C121.688 13.8933 121.674 14.14 121.648 14.46H113.268C113.414 15.2467 113.794 15.8733 114.408 16.34C115.034 16.7933 115.808 17.02 116.728 17.02C117.901 17.02 118.868 16.6333 119.628 15.86L120.968 17.4C120.488 17.9733 119.881 18.4067 119.148 18.7C118.414 18.9933 117.588 19.14 116.668 19.14C115.494 19.14 114.461 18.9067 113.568 18.44C112.674 17.9733 111.981 17.3267 111.488 16.5C111.008 15.66 110.768 14.7133 110.768 13.66C110.768 12.62 111.001 11.6867 111.468 10.86C111.948 10.02 112.608 9.36667 113.448 8.9C114.288 8.43333 115.234 8.2 116.288 8.2C117.328 8.2 118.254 8.43333 119.068 8.9C119.894 9.35333 120.534 10 120.988 10.84C121.454 11.6667 121.688 12.6267 121.688 13.72ZM116.288 10.2C115.488 10.2 114.808 10.44 114.248 10.92C113.701 11.3867 113.368 12.0133 113.248 12.8H119.308C119.201 12.0267 118.874 11.4 118.328 10.92C117.781 10.44 117.101 10.2 116.288 10.2ZM130.009 8.2C131.049 8.2 131.976 8.42667 132.789 8.88C133.616 9.33333 134.263 9.97333 134.729 10.8C135.196 11.6267 135.429 12.58 135.429 13.66C135.429 14.74 135.196 15.7 134.729 16.54C134.263 17.3667 133.616 18.0067 132.789 18.46C131.976 18.9133 131.049 19.14 130.009 19.14C128.569 19.14 127.429 18.66 126.589 17.7V22.88H124.089V8.32H126.469V9.72C126.883 9.21333 127.389 8.83333 127.989 8.58C128.603 8.32667 129.276 8.2 130.009 8.2ZM129.729 17C130.649 17 131.403 16.6933 131.989 16.08C132.589 15.4667 132.889 14.66 132.889 13.66C132.889 12.66 132.589 11.8533 131.989 11.24C131.403 10.6267 130.649 10.32 129.729 10.32C129.129 10.32 128.589 10.46 128.109 10.74C127.629 11.0067 127.249 11.3933 126.969 11.9C126.689 12.4067 126.549 12.9933 126.549 13.66C126.549 14.3267 126.689 14.9133 126.969 15.42C127.249 15.9267 127.629 16.32 128.109 16.6C128.589 16.8667 129.129 17 129.729 17ZM147.84 13.72C147.84 13.8933 147.827 14.14 147.8 14.46H139.42C139.567 15.2467 139.947 15.8733 140.56 16.34C141.187 16.7933 141.96 17.02 142.88 17.02C144.053 17.02 145.02 16.6333 145.78 15.86L147.12 17.4C146.64 17.9733 146.033 18.4067 145.3 18.7C144.567 18.9933 143.74 19.14 142.82 19.14C141.647 19.14 140.613 18.9067 139.72 18.44C138.827 17.9733 138.133 17.3267 137.64 16.5C137.16 15.66 136.92 14.7133 136.92 13.66C136.92 12.62 137.153 11.6867 137.62 10.86C138.1 10.02 138.76 9.36667 139.6 8.9C140.44 8.43333 141.387 8.2 142.44 8.2C143.48 8.2 144.407 8.43333 145.22 8.9C146.047 9.35333 146.687 10 147.14 10.84C147.607 11.6667 147.84 12.6267 147.84 13.72ZM142.44 10.2C141.64 10.2 140.96 10.44 140.4 10.92C139.853 11.3867 139.52 12.0133 139.4 12.8H145.46C145.353 12.0267 145.027 11.4 144.48 10.92C143.933 10.44 143.253 10.2 142.44 10.2ZM152.622 9.88C153.342 8.76 154.608 8.2 156.422 8.2V10.58C156.208 10.54 156.015 10.52 155.842 10.52C154.868 10.52 154.108 10.8067 153.562 11.38C153.015 11.94 152.742 12.7533 152.742 13.82V19H150.242V8.32H152.622V9.88Z" fill="#91AED4"/>
<path d="M17.2271 4.49276L3.00006 9.73431L10.4492 11.2707L11.9856 18.7198L17.2271 4.49276Z" stroke="#91AED4" stroke-width="2" stroke-linecap="round" stroke-linejoin="round"/>
</svg>
