<svg xmlns="http://www.w3.org/2000/svg" viewBox="0 0 40 40">
   <title>Меню</title>
   <path d="M25.2857 20C26.2325 20 27 20.4477 27 21C27 21.5523 26.2325 22 25.2857 22H4.71429C3.76751 22 3 21.5523 3 21C3 20.4477 3.76751 20 4.71429 20H25.2857Z"/>
   <path d="M25.2857 14C26.2325 14 27 14.4477 27 15C27 15.5523 26.2325 16 25.2857 16H4.71429C3.76751 16 3 15.5523 3 15C3 14.4477 3.76751 14 4.71429 14H25.2857Z"/>
   <path d="M25.2857 10H4.71429C3.76751 10 3 9.55228 3 9C3 8.44772 3.76751 8 4.71429 8H25.2857C26.2325 8 27 8.44772 27 9C27 9.55228 26.2325 10 25.2857 10Z"/>
</svg>
