<svg xmlns="http://www.w3.org/2000/svg" viewBox="0 0 24 24"><title>TP</title><path d="M16.4,5a2.11,2.11,0,0,1,1.3.5,6.28,6.28,0,0,1,1.1,1.2,2.13,2.13,0,0,1-.4,2.4l-4.8,4.8L10,17.5a2.07,2.07,0,0,1-1,.6c-1,.3-1.9.5-2.9.8-.2.1-.4.1-.6.2H5.2a.52.52,0,0,1-.2-.4v-.4c.3-1.2.7-2.3,1-3.5a1.37,1.37,0,0,1,.5-.8c2.8-2.8,5.6-5.5,8.3-8.3a2.07,2.07,0,0,1,1-.6A1.27,1.27,0,0,1,16.4,5Zm.3,4.7a.1.1,0,0,0-.1-.1L14.4,7.4c-.1-.1-.1-.1-.3,0l-7,7c-.1.1-.1.1,0,.3l2.2,2.2c.1.1.1.1.3,0L13.5,13l3.1-3.1A.31.31,0,0,0,16.7,9.7Zm-.2-4a1.28,1.28,0,0,0-1,.4c-.2.2-.3.4-.5.6A.19.19,0,0,0,15,7l1.1,1.1,1.1,1.1c.1.1.1.1.2,0l.6-.6a1.35,1.35,0,0,0,0-1.7,4.62,4.62,0,0,0-.7-.7A1,1,0,0,0,16.5,5.7ZM8.8,17.3h0l-2-2c-.1-.1-.1-.1-.2.1-.2.9-.5,1.7-.7,2.6,0,0-.1.1,0,.1H6c.6-.2,1.2-.3,1.8-.5a2.24,2.24,0,0,0,1-.3C8.7,17.4,8.8,17.4,8.8,17.3Z"/></svg>