<svg xmlns="http://www.w3.org/2000/svg" viewBox="0 0 40 40"><title>TP</title><path d="M34,4.3A1.55,1.55,0,0,1,35.33,5c1.94,2.83-4.25,8.85-6,10.5a1.24,1.24,0,0,0-.4,1.07l1.86,16a1.28,1.28,0,0,1-.4,1.06l-.31.29a1.3,1.3,0,0,1-.88.34A1.28,1.28,0,0,1,28,33.53l-5-9.6a1.29,1.29,0,0,0-1.15-.69,1.27,1.27,0,0,0-.9.37l-3.68,3.63A1.27,1.27,0,0,0,17,28.33l.91,5.91a1.28,1.28,0,0,1-.51,1.21h0a1.24,1.24,0,0,1-.75.24,1.27,1.27,0,0,1-1.12-.64l-3.63-6.39a1.28,1.28,0,0,0-.5-.48L5,24.65a1.25,1.25,0,0,1-.39-1.87,1.3,1.3,0,0,1,1-.5l.19,0,5.75.85.19,0a1.29,1.29,0,0,0,.91-.37l3.68-3.64a1.25,1.25,0,0,0-.32-2L6.46,12.33A1.26,1.26,0,0,1,6,10.45L6.34,10a1.3,1.3,0,0,1,1-.51h.14l16,1.78h.15a1.25,1.25,0,0,0,.92-.39c1.5-1.56,6.55-6.6,9.34-6.6m0-1.8c-3.06,0-7.34,3.75-10.46,7L7.71,7.72l-.34,0A3.08,3.08,0,0,0,4.9,8.94l-.32.43a3.05,3.05,0,0,0,1.07,4.56l8.86,4.48-3,2.93L6,20.52a3.4,3.4,0,0,0-.45,0,3.12,3.12,0,0,0-2.45,1.2,3.06,3.06,0,0,0-.57,2.48,3.13,3.13,0,0,0,1.52,2.06l6.27,3.46L13.91,36a3.09,3.09,0,0,0,4.48,1,3.06,3.06,0,0,0,1.25-3l-.87-5.63,3-3,4.65,9a3.07,3.07,0,0,0,4.82.84l.31-.29a3.05,3.05,0,0,0,1-2.59L30.69,16.61C34.87,12.74,39.22,7.48,36.81,4A3.34,3.34,0,0,0,34,2.5Z"/></svg>