<svg xmlns="http://www.w3.org/2000/svg" viewBox="0 0 40 40"><title>TP</title><path d="M37.39,6A2,2,0,0,0,36.1,4.11,24.06,24.06,0,0,0,27.37,2.5a24.5,24.5,0,0,0-9.31,1.77,2.05,2.05,0,0,0-1.19,1.9s0,1,.06,2.38a24.93,24.93,0,0,0-14,8.69,2.11,2.11,0,0,0-.27,1.87A107,107,0,0,0,8,31.85a11.63,11.63,0,0,0,9.88,5.65,10.24,10.24,0,0,0,2.91-.42,1.8,1.8,0,0,0,.65-.32,13.47,13.47,0,0,0,3.86-5.87,8.35,8.35,0,0,0,1.52.45,2,2,0,0,0,.34,0,2.21,2.21,0,0,0,.37,0c4.33-.83,9.05-5.1,9.72-11.63A132.44,132.44,0,0,0,37.39,6ZM20.22,35.12a8.16,8.16,0,0,1-2.36.34,9.68,9.68,0,0,1-8.11-4.58A104.33,104.33,0,0,1,4.51,18.44a23.3,23.3,0,0,1,14.93-8.31S23.57,19.37,24.37,25C24.7,27.24,22.82,33.17,20.22,35.12Zm15-15.63c-.61,5.94-4.95,9.23-8.09,9.84A6.66,6.66,0,0,1,25.89,29a11.86,11.86,0,0,0,.48-4.28c-.14-.94-.37-2-.64-3.05a3.13,3.13,0,0,1,.92-.18,6.11,6.11,0,0,1,3.47,1.41.88.88,0,0,0,1.24-.09.9.9,0,0,0-.09-1.26,7.44,7.44,0,0,0-4.69-1.84,4.75,4.75,0,0,0-1.32.25c-.56-1.87-1.23-3.77-1.87-5.44h.09A3,3,0,0,0,26,13.2a.88.88,0,0,0-.28-1.2.87.87,0,0,0-1.21.25,1.24,1.24,0,0,1-1,.45,1.1,1.1,0,0,1-.95-.55.71.71,0,0,0-.07-.09c-.64-1.57-1.11-2.64-1.17-2.77a2,2,0,0,0-1.83-1.2l-.29,0-.22.05c0-1.24-.05-2-.05-2a22.54,22.54,0,0,1,8.49-1.59,22,22,0,0,1,8,1.48S35.7,14.83,35.23,19.49Z"/><path d="M31.17,14.65h-.05a2.85,2.85,0,0,1-2.5-1.56A.9.9,0,0,1,29,11.9a.87.87,0,0,1,1.17.41,1.08,1.08,0,0,0,.95.55,1.14,1.14,0,0,0,1-.43.87.87,0,0,1,1.21-.29.91.91,0,0,1,.29,1.23A2.94,2.94,0,0,1,31.17,14.65Z"/><path d="M9.93,24.68h0a.88.88,0,0,1-.87-.9,3,3,0,0,1,1.51-2.42,2.82,2.82,0,0,1,2.93,0,.9.9,0,0,1,.26,1.24.86.86,0,0,1-1.21.26,1.13,1.13,0,0,0-1.1,0,1.2,1.2,0,0,0-.63.9A.89.89,0,0,1,9.93,24.68Z"/><path d="M16.73,20.78h0a.88.88,0,0,1-.87-.9,3,3,0,0,1,1.51-2.43,2.84,2.84,0,0,1,2.93,0,.9.9,0,0,1,.26,1.24.86.86,0,0,1-1.21.26,1.1,1.1,0,0,0-1.1,0,1.2,1.2,0,0,0-.63.89A.9.9,0,0,1,16.73,20.78Z"/><path d="M15.23,29.9a9.12,9.12,0,0,1-2-.23.9.9,0,0,1-.63-1.09.88.88,0,0,1,1.08-.64,5.77,5.77,0,0,0,3.72-.3,5.79,5.79,0,0,0,2.19-3.08.88.88,0,1,1,1.69.49,7.55,7.55,0,0,1-3,4.16A6.24,6.24,0,0,1,15.23,29.9Z"/></svg>