<svg xmlns="http://www.w3.org/2000/svg" viewBox="0 0 40 40">
	<title>Настройки</title>
	<path fill-rule="evenodd" clip-rule="evenodd" d="M8,25.4c0-0.7,0.5-1.2,1.2-1.2H20c0.1,0,0.2,0,0.3,0c0.5-1.6,2-2.7,3.7-2.7c1.8,0,3.2,1.2,3.7,2.7
		c0.1,0,0.2,0,0.3,0h2.7c0.7,0,1.2,0.5,1.2,1.2s-0.5,1.2-1.2,1.2h-2.7c-0.1,0-0.2,0-0.3,0c-0.5,1.6-2,2.7-3.7,2.7
		c-1.8,0-3.2-1.2-3.7-2.7c-0.1,0-0.2,0-0.3,0H9.2C8.5,26.6,8,26.1,8,25.4z M22.6,25.4c0-0.8,0.7-1.5,1.5-1.5c0.8,0,1.5,0.7,1.5,1.5
		s-0.7,1.5-1.5,1.5C23.2,26.9,22.6,26.2,22.6,25.4z"/>
	<path fill-rule="evenodd" clip-rule="evenodd" d="M11.9,15.8c0.1,0,0.2,0,0.3,0c0.5,1.6,2,2.7,3.7,2.7c1.8,0,3.2-1.2,3.7-2.7c0.1,0,0.2,0,0.3,0h10.8
		c0.7,0,1.2-0.5,1.2-1.2c0-0.7-0.5-1.2-1.2-1.2H20c-0.1,0-0.2,0-0.3,0c-0.5-1.6-2-2.7-3.7-2.7c-1.8,0-3.2,1.2-3.7,2.7
		c-0.1,0-0.2,0-0.3,0H9.2c-0.7,0-1.2,0.5-1.2,1.2c0,0.7,0.5,1.2,1.2,1.2H11.9z M16,13.1c-0.8,0-1.5,0.7-1.5,1.5
		c0,0.8,0.7,1.5,1.5,1.5c0.8,0,1.5-0.7,1.5-1.5C17.4,13.8,16.8,13.1,16,13.1z"/>
</svg>
