<svg xmlns="http://www.w3.org/2000/svg" viewBox="0 0 40 40">
   <title>Настройки</title>
   <path fill-rule="evenodd" clip-rule="evenodd" d="M6.91011 11.1236C7.01859 11.1236 7.12374 11.1094 7.2238 11.0827C7.7219 12.6693 9.20407 13.8202 10.9551 13.8202C12.706 13.8202 14.1882 12.6693 14.6863 11.0827C14.7864 11.1094 14.8915 11.1236 15 11.1236H25.7865C26.4567 11.1236 27 10.5803 27 9.91011C27 9.23992 26.4567 8.69663 25.7865 8.69663H15C14.8915 8.69663 14.7864 8.71087 14.6863 8.73757C14.1882 7.15094 12.706 6 10.9551 6C9.20407 6 7.7219 7.15094 7.2238 8.73756C7.12374 8.71086 7.01859 8.69663 6.91011 8.69663H4.21348C3.54329 8.69663 3 9.23992 3 9.91011C3 10.5803 3.54329 11.1236 4.21348 11.1236H6.91011ZM10.9551 8.42697C10.1359 8.42697 9.47191 9.09099 9.47191 9.91011C9.47191 10.7292 10.1359 11.3933 10.9551 11.3933C11.7742 11.3933 12.4382 10.7292 12.4382 9.91011C12.4382 9.09099 11.7742 8.42697 10.9551 8.42697Z"/>
   <path fill-rule="evenodd" clip-rule="evenodd" d="M3 20.6966C3 20.0264 3.54329 19.4831 4.21348 19.4831H15C15.1085 19.4831 15.2136 19.4974 15.3137 19.5241C15.8118 17.9375 17.294 16.7865 19.0449 16.7865C20.7959 16.7865 22.2781 17.9375 22.7762 19.5241C22.8763 19.4974 22.9814 19.4831 23.0899 19.4831H25.7865C26.4567 19.4831 27 20.0264 27 20.6966C27 21.3668 26.4567 21.9101 25.7865 21.9101H23.0899C22.9814 21.9101 22.8763 21.8959 22.7762 21.8692C22.2781 23.4558 20.7959 24.6067 19.0449 24.6067C17.294 24.6067 15.8118 23.4558 15.3137 21.8692C15.2136 21.8959 15.1085 21.9101 15 21.9101H4.21348C3.54329 21.9101 3 21.3668 3 20.6966ZM17.5618 20.6966C17.5618 19.8775 18.2258 19.2135 19.0449 19.2135C19.8641 19.2135 20.5281 19.8775 20.5281 20.6966C20.5281 21.5157 19.8641 22.1798 19.0449 22.1798C18.2258 22.1798 17.5618 21.5157 17.5618 20.6966Z"/>
</svg>
