<svg width="35" height="35" viewBox="0 0 35 35" fill="none" xmlns="http://www.w3.org/2000/svg">
<path d="M34.0601 15.2233C34.059 15.2225 34.0582 15.2214 34.0574 15.2206L19.7787 0.943947C19.1701 0.335121 18.3609 0 17.5002 0C16.6395 0 15.8303 0.335121 15.2214 0.943947L0.95022 15.2134C0.945413 15.2182 0.940339 15.2233 0.935799 15.2281C-0.314022 16.485 -0.311885 18.5243 0.941942 19.778C1.51478 20.3511 2.27108 20.6827 3.07999 20.7177C3.11311 20.7209 3.14622 20.7225 3.1796 20.7225H3.74843V31.229C3.74843 33.3084 5.4405 35 7.52006 35H13.1063C13.6728 35 14.1318 34.5407 14.1318 33.9746V25.7373C14.1318 24.7886 14.9039 24.0168 15.8527 24.0168H19.1477C20.0965 24.0168 20.8683 24.7886 20.8683 25.7373V33.9746C20.8683 34.5407 21.3274 35 21.8938 35H27.4801C29.5599 35 31.2517 33.3084 31.2517 31.229V20.7225H31.7794C32.6399 20.7225 33.449 20.3874 34.0582 19.7783C35.3134 18.5227 35.3139 16.4797 34.0601 15.2233ZM32.6078 18.3283C32.3864 18.5497 32.0921 18.6717 31.7794 18.6717H30.2262C29.6598 18.6717 29.2007 19.1307 29.2007 19.6971V31.229C29.2007 32.1775 28.4289 32.9492 27.4801 32.9492H22.9193V25.7373C22.9193 23.658 21.2275 21.9661 19.1477 21.9661H15.8527C13.7729 21.9661 12.0808 23.658 12.0808 25.7373V32.9492H7.52006C6.57148 32.9492 5.79942 32.1775 5.79942 31.229V19.6971C5.79942 19.1307 5.34035 18.6717 4.77393 18.6717H3.24743C3.23141 18.6707 3.21565 18.6699 3.19936 18.6696C2.89385 18.6642 2.6073 18.543 2.39259 18.3281C1.93592 17.8714 1.93592 17.1283 2.39259 16.6714C2.39286 16.6714 2.39286 16.6711 2.39312 16.6709L2.39392 16.6701L16.6721 2.39391C16.8932 2.17255 17.1872 2.05078 17.5002 2.05078C17.8129 2.05078 18.107 2.17255 18.3283 2.39391L32.6033 16.6671C32.6054 16.6693 32.6078 16.6714 32.61 16.6735C33.0642 17.131 33.0634 17.8725 32.6078 18.3283Z" fill="#BDBDBD"/>
</svg>
