<svg width="35" height="35" viewBox="0 0 35 35" fill="none" xmlns="http://www.w3.org/2000/svg">
<path d="M34.5509 2.28313C34.4347 2.18982 31.6226 0 24.7346 0C17.8464 0 15.034 2.18982 14.9176 2.28313C14.6367 2.50845 14.4687 2.88106 14.4687 3.27927V5.6788C12.8973 6.04268 10.8005 6.77137 8.19996 8.19724C1.96404 11.6166 0.213936 14.9951 0.142372 15.1371C-0.0301283 15.4807 -0.0469511 15.9014 0.0977784 16.2622L4.2984 26.7254C6.36307 31.8683 10.7578 35 15.4351 35C16.4712 35 17.5214 34.8465 18.5628 34.5269C18.566 34.526 18.5692 34.525 18.5724 34.5238H18.5727C18.6907 34.486 18.8023 34.4242 18.9017 34.3412C20.7327 32.8114 22.1097 30.7854 22.9776 28.517C23.4857 28.7092 24.0096 28.8649 24.5472 28.9804C24.5781 28.9873 24.6091 28.9923 24.6406 28.9954H24.6409C24.6719 28.9988 24.7031 29.0004 24.7344 29.0004C24.7971 29.0004 24.8596 28.9938 24.9213 28.9804C30.7615 27.7246 35 21.7765 35 14.8369V3.27927C35 2.88106 34.832 2.50845 34.5509 2.28313ZM6.16947 25.6993L2.2324 15.892C2.91867 14.9412 4.84341 12.7061 9.07768 10.3843C13.3127 8.06242 16.0132 7.76127 17.0773 7.75253L21.0144 17.5598C23.0857 22.7196 21.7541 28.8578 17.8536 32.245C13.1314 33.5854 8.24081 30.8591 6.16947 25.6993ZM32.9329 14.8369C32.9329 20.5366 29.4965 25.4324 24.7344 26.5625C24.3683 26.4757 24.0099 26.3662 23.6604 26.236C24.157 23.9869 24.1894 21.5974 23.71 19.2765C24.9915 18.8611 26.4236 19.24 27.4289 20.4149C27.6308 20.6509 27.8954 20.7688 28.1598 20.7688C28.4242 20.7688 28.6888 20.6509 28.8907 20.4149C29.2941 19.9434 29.2941 19.1788 28.8907 18.7069C27.3141 16.8648 25.0577 16.2896 23.0566 16.9818C23.0016 16.832 22.9453 16.6825 22.8855 16.5337L21.2096 12.3587C22.0443 12.3506 22.8283 11.9677 23.4192 11.2768C23.8227 10.8052 23.8227 10.0403 23.4192 9.5688C23.0158 9.09726 22.3613 9.09726 21.9578 9.5688C21.7508 9.81066 21.4758 9.94392 21.1831 9.94392C20.8908 9.94392 20.6157 9.81066 20.4088 9.5688C20.2811 9.41994 20.1287 9.31821 19.9671 9.26328L18.6851 6.07046C18.5404 5.7097 18.253 5.45598 17.9169 5.39139C17.8667 5.38171 17.4015 5.29964 16.5355 5.35799V4.00172C17.4941 3.48461 20.0445 2.41545 24.7346 2.41545C29.4119 2.41545 31.9663 3.48368 32.9329 4.00391V14.8369Z" fill="#BDBDBD"/>
<path d="M28.7259 12.3593C29.5708 12.3593 30.3649 11.9751 30.9623 11.277C31.3657 10.8052 31.3657 10.0406 30.9623 9.56875C30.5585 9.0972 29.9043 9.0972 29.5006 9.56875C29.2936 9.8106 29.0186 9.94386 28.7262 9.94386C28.4335 9.94386 28.1585 9.8106 27.9515 9.56875C27.548 9.0972 26.8936 9.0972 26.4898 9.56875C26.0863 10.0406 26.0863 10.8052 26.4898 11.277C27.0871 11.9751 27.8813 12.3593 28.7259 12.3593Z" fill="#BDBDBD"/>
<path d="M11.4214 19.8407C11.6155 19.2134 11.3375 18.521 10.8008 18.2944C10.0061 17.9589 9.14763 18.0051 8.38286 18.4245C7.61809 18.844 7.03891 19.5861 6.75185 20.5145C6.55799 21.1418 6.83597 21.8342 7.37269 22.0608C7.48858 22.1098 7.60714 22.1329 7.72384 22.1329C8.14681 22.1329 8.54388 21.8271 8.69582 21.3352C8.79515 21.0138 8.99596 20.7567 9.26085 20.6112C9.52574 20.4661 9.82321 20.4502 10.0983 20.5663C10.635 20.7929 11.2275 20.4683 11.4214 19.8407Z" fill="#BDBDBD"/>
<path d="M14.2011 18.3168C14.3173 18.3655 14.4356 18.3889 14.5523 18.3889C14.9752 18.3889 15.3723 18.0831 15.5242 17.5913C15.6239 17.2695 15.8244 17.0124 16.0893 16.8673C16.3542 16.7218 16.6516 16.7059 16.9267 16.8223C17.4637 17.0489 18.0559 16.724 18.2501 16.0967C18.4439 15.4692 18.166 14.777 17.6292 14.5504C15.9891 13.8579 14.1728 14.8538 13.5803 16.7702C13.3864 17.3978 13.6644 18.09 14.2011 18.3168Z" fill="#BDBDBD"/>
<path d="M18.7548 23.0534C18.9487 22.4262 18.6707 21.734 18.134 21.5071C17.5972 21.2802 17.0047 21.6051 16.8109 22.2327C16.0966 24.5423 13.9075 25.7423 11.9314 24.9081C11.3944 24.6812 10.8022 25.0061 10.6083 25.6334C10.4142 26.2609 10.6922 26.9531 11.2289 27.18C11.8863 27.4574 12.5587 27.5891 13.2207 27.5891C15.6274 27.5891 17.891 25.8474 18.7548 23.0534Z" fill="#BDBDBD"/>
</svg>
