<svg width="35" height="35" viewBox="0 0 35 35" fill="none" xmlns="http://www.w3.org/2000/svg">
<path d="M30.5454 4.58566H26.5152V3.16912C26.5152 2.71081 25.8788 2.50252 25.2955 2.50252H22.1668C21.4244 0.835971 19.5683 0.00269765 17.4471 0.00269765C15.3492 -0.0592655 13.441 0.951364 12.7274 2.50252H9.65163C9.06829 2.50252 8.48495 2.71081 8.48495 3.16912V4.58566H4.45457C2.0662 4.60568 0.112262 6.08593 0 7.96038V31.8336C0 33.6668 2.12121 35 4.45457 35H30.5454C32.8788 35 35 33.6668 35 31.8336V7.96046C34.8877 6.08593 32.9338 4.60568 30.5454 4.58566ZM10.6061 4.16906H13.5228C14.0319 4.12026 14.4408 3.81594 14.5304 3.41912C14.8444 2.34462 16.0443 1.57331 17.4471 1.54428C18.8368 1.57738 20.0186 2.35108 20.3107 3.41912C20.4058 3.82966 20.8417 4.13788 21.3713 4.16906H24.394V7.50215H10.6061V4.16906ZM32.8788 31.8337C32.8788 32.7503 31.7121 33.3335 30.5454 33.3335H4.45457C3.28789 33.3335 2.12121 32.7503 2.12121 31.8337V7.96046C2.22941 7.00637 3.23551 6.26975 4.45457 6.25228H8.48485V8.37713C8.54088 8.84397 9.0555 9.19318 9.65152 9.16878H25.2954C25.9024 9.19486 26.4331 8.85043 26.515 8.37713V6.2522H30.5453C31.7643 6.26975 32.7705 7.00629 32.8787 7.96038V31.8337H32.8788Z" fill="#BDBDBD"/>
<path d="M13.4167 18.6264C13.0189 18.2969 12.3585 18.2783 11.9318 18.5847L8.53783 21.1262L7.10603 19.9596C6.70823 19.6301 6.04786 19.6116 5.62114 19.9179C5.21035 20.2561 5.21035 20.788 5.62114 21.1262L7.79533 22.8761C7.98352 23.0416 8.25534 23.1332 8.53773 23.1261C8.81747 23.123 9.08432 23.0331 9.28012 22.8761L13.4165 19.793C13.8265 19.4974 13.854 18.9966 13.4777 18.6745C13.4584 18.6577 13.438 18.6417 13.4167 18.6264Z" fill="#BDBDBD"/>
<path d="M28.6363 20.4178H16.4394C15.8536 20.4178 15.3788 20.7909 15.3788 21.2511C15.3788 21.7113 15.8536 22.0844 16.4394 22.0844H28.6363C29.2221 22.0844 29.6969 21.7113 29.6969 21.2511C29.6969 20.7909 29.2221 20.4178 28.6363 20.4178Z" fill="#BDBDBD"/>
<path d="M13.4167 11.9602C13.0189 11.6307 12.3585 11.6121 11.9318 11.9185L8.53783 14.46L7.10603 13.2934C6.70823 12.9639 6.04786 12.9453 5.62114 13.2517C5.21035 13.5899 5.21035 14.1219 5.62114 14.46L7.79533 16.2099C7.98352 16.3754 8.25534 16.467 8.53773 16.4599C8.81747 16.4568 9.08432 16.3669 9.28012 16.2099L13.4165 13.1268C13.8265 12.8312 13.854 12.3304 13.4777 12.0083C13.4584 11.9915 13.438 11.9755 13.4167 11.9602Z" fill="#BDBDBD"/>
<path d="M28.6363 13.7516H16.4394C15.8536 13.7516 15.3788 14.1247 15.3788 14.5849C15.3788 15.0451 15.8536 15.4182 16.4394 15.4182H28.6363C29.2221 15.4182 29.6969 15.0451 29.6969 14.5849C29.6969 14.1247 29.2221 13.7516 28.6363 13.7516Z" fill="#BDBDBD"/>
<path d="M13.4167 25.2925C13.0189 24.963 12.3585 24.9445 11.9318 25.2508L8.53783 27.7923L7.10603 26.6257C6.70823 26.2962 6.04786 26.2777 5.62114 26.584C5.21035 26.9222 5.21035 27.4542 5.62114 27.7923L7.79533 29.5422C7.98352 29.7077 8.25534 29.7993 8.53773 29.7922C8.81747 29.7891 9.08432 29.6992 9.28012 29.5422L13.4165 26.4591C13.8265 26.1635 13.854 25.6627 13.4777 25.3406C13.4584 25.3239 13.438 25.3079 13.4167 25.2925Z" fill="#BDBDBD"/>
<path d="M28.6363 27.084H16.4394C15.8536 27.084 15.3788 27.4571 15.3788 27.9173C15.3788 28.3775 15.8536 28.7506 16.4394 28.7506H28.6363C29.2221 28.7506 29.6969 28.3775 29.6969 27.9173C29.6969 27.4571 29.2221 27.084 28.6363 27.084Z" fill="#BDBDBD"/>
</svg>
