<svg width="35" height="30" viewBox="0 0 35 30" fill="none" xmlns="http://www.w3.org/2000/svg">
<path d="M34.8862 2.53126C34.6867 1.69321 34.2468 1.05952 33.7043 0.827278C33.1437 0.587523 28.1265 -1.41752 24.5741 1.85207C23.706 2.65114 22.1002 4.36351 19.6753 7.07552L5.5167 1.02707C5.06867 0.835662 4.59153 0.936051 4.1902 1.30581L2.67646 2.69949C2.12637 3.20589 1.79155 4.14891 1.80262 5.16259C1.8137 6.17529 2.16896 7.0998 2.73012 7.5755L12.1812 15.5863C10.5846 17.373 9.02946 19.0779 8.08624 20.1065L3.84546 16.1298C3.30297 15.6207 2.63038 15.617 2.08495 16.1187L0.873969 17.2337C0.377547 17.6908 0.0532527 18.5075 0.00594836 19.418C-0.0412876 20.3295 0.194961 21.2187 0.637721 21.8002L6.40509 29.3651C6.74572 29.8119 7.17973 30.0369 7.62017 29.9951L11.522 29.6216C11.7927 29.5956 12.0564 29.4693 12.2914 29.2537L28.9443 13.9233C32.2909 10.8423 34.6137 5.29172 34.7105 5.05665C35.0203 4.30875 35.0857 3.36932 34.8862 2.53126ZM28.07 11.5084C25.0419 14.2957 11.4171 26.8388 11.4171 26.8388L7.51524 27.2123L1.74787 19.6475L2.95885 18.5325L8.15453 23.4048C8.15453 23.4048 12.3276 18.893 15.501 15.2434L3.5509 5.11327L5.06464 3.71959L20.0125 10.1063C22.3475 7.48066 24.4394 5.19504 25.448 4.26683C28.4761 1.47947 33.2517 3.5198 33.2517 3.5198C33.2517 3.5198 31.098 8.72104 28.07 11.5084Z" fill="#4F4F4F"/>
</svg>
